<?xml version="1.0" encoding="UTF-8"?>
<svg id="_Слой_2" data-name="Слой 2" xmlns="http://www.w3.org/2000/svg" viewBox="0 0 127.28 68.26">
  <defs>
    <style>
      .cls-1 {
        fill: #ea0029;
      }

      .cls-1, .cls-2, .cls-3, .cls-4 {
        stroke-width: 0px;
      }

      .cls-2 {
        fill: #0047ba;
      }

      .cls-3 {
        fill: #bcbec0;
      }

      .cls-4 {
        fill: #2e52a4;
      }
    </style>
  </defs>
  <g id="Layer_1" data-name="Layer 1">
    <g>
      <g>
        <path class="cls-1" d="m119.49,20.41v20.96l-19.82-13.55c.12.75.2,1.53.2,2.35v5.67c0,.27,0,.66-.04,1.15l27.23,18.63V20.41h-7.58Z"/>
        <path class="cls-1" d="m96.01,45.85c-1.45,1.51-3.86,3.25-7.5,3.84v5.83h7.57v-9.76s-.05.06-.07.08Z"/>
      </g>
      <g>
        <path class="cls-3" d="m0,61.5h1.55c.63,0,1.23-.03,1.79.35.55.37.88,1,.88,1.66s-.27,1.28-.78,1.69c-.55.44-1.31.4-1.96.4h-.24v2.5H0v-6.6Zm2.39,2.84c.36-.11.6-.43.6-.81s-.27-.69-.63-.79c-.27-.07-.64-.05-.91-.05h-.22v1.72h.22c.3,0,.65.02.95-.07Z"/>
        <path class="cls-3" d="m9.93,68.26c-1.88,0-3.44-1.52-3.44-3.43s1.54-3.46,3.44-3.46,3.44,1.54,3.44,3.46-1.56,3.43-3.44,3.43Zm0-1.19c1.21,0,2.21-1.05,2.21-2.27s-.98-2.24-2.21-2.24-2.22,1-2.22,2.24,1.01,2.27,2.22,2.27Z"/>
        <path class="cls-3" d="m19.09,68.26c-1.89,0-3.42-1.58-3.42-3.47s1.55-3.42,3.39-3.42c1.32,0,2.62.77,3.13,2.01h-1.39c-.41-.5-1.07-.82-1.73-.82-1.21,0-2.17,1.05-2.17,2.28s1,2.24,2.18,2.24c.65,0,1.21-.3,1.66-.77h1.42c-.5,1.2-1.79,1.96-3.06,1.96Z"/>
        <path class="cls-3" d="m25.74,61.5v2.65h2.41v-2.65h1.22v6.6h-1.22v-2.77h-2.41v2.77h-1.22v-6.6h1.22Z"/>
        <path class="cls-3" d="m37.11,68.1h-1.22v-4.81l-2.82,4.81h-1.36v-6.6h1.22v4.82l2.8-4.82h1.38v6.6Z"/>
        <path class="cls-3" d="m44.84,68.1h-1.22v-4.81l-2.81,4.81h-1.36v-6.6h1.22v4.82l2.8-4.82h1.37v6.6Z"/>
        <path class="cls-3" d="m47.17,61.5h1.56c.63,0,1.23-.03,1.79.35.54.37.87,1,.87,1.66s-.27,1.28-.78,1.69c-.55.44-1.32.4-1.97.4h-.24v2.5h-1.22v-6.6Zm2.39,2.84c.36-.11.6-.43.6-.81s-.27-.69-.63-.79c-.27-.07-.65-.05-.91-.05h-.22v1.72h.22c.3,0,.65.02.95-.07Z"/>
        <path class="cls-3" d="m57.17,68.26c-1.88,0-3.44-1.52-3.44-3.43s1.54-3.46,3.44-3.46,3.44,1.54,3.44,3.46-1.56,3.43-3.44,3.43Zm0-1.19c1.2,0,2.21-1.05,2.21-2.27s-.98-2.24-2.21-2.24-2.22,1-2.22,2.24,1.01,2.27,2.22,2.27Z"/>
        <path class="cls-3" d="m66.38,68.26c-1.89,0-3.42-1.58-3.42-3.47s1.55-3.42,3.39-3.42c1.32,0,2.63.77,3.13,2.01h-1.39c-.41-.5-1.07-.82-1.73-.82-1.21,0-2.17,1.05-2.17,2.28s1,2.24,2.18,2.24c.65,0,1.22-.3,1.66-.77h1.42c-.5,1.2-1.79,1.96-3.07,1.96Z"/>
      </g>
      <g>
        <g>
          <path class="cls-2" d="m40.59,20.32c-.32-.9-.61-1.83-.85-2.77-.12-.48-.23-.96-.33-1.44-.45-.05-.86-.21-1.21-.45-.73.87-1.39,1.78-1.99,2.71.03.08.05.17.06.27,1.32.75,2.73,1.36,4.22,1.82.03-.04.06-.08.1-.12Z"/>
          <path class="cls-2" d="m35.58,17.76c.6-.93,1.27-1.83,2-2.7-.34-.45-.55-1.01-.55-1.62,0-1.14.72-2.12,1.73-2.5-.13-3.03.18-6,.92-8.82-4.49,2.45-7.78,6.81-8.79,11.99,1.15,1.41,2.5,2.63,4,3.66.11-.04.23-.06.35-.06s.23.02.34.06Z"/>
          <path class="cls-2" d="m41.36,11.33c1.25-1.02,2.6-1.97,4.06-2.81,1.66-.96,3.39-1.74,5.16-2.36.02-.61.33-1.15.8-1.48-.62-1.66-1.4-3.22-2.33-4.66-.34-.02-.68-.03-1.02-.03-2.61,0-5.08.57-7.31,1.6-.86,2.9-1.23,6-1.11,9.17.03,0,.06,0,.09,0,.62,0,1.2.21,1.65.57Z"/>
          <path class="cls-2" d="m54,5.21c1.89-.4,3.81-.62,5.72-.62.04,0,.09,0,.13,0-2.63-2.42-6.01-4.03-9.75-4.47.81,1.33,1.5,2.76,2.07,4.26.09-.01.18-.02.27-.02.65,0,1.23.34,1.56.85Z"/>
          <path class="cls-2" d="m53.21,7.91c.63,2.82.82,5.83.5,8.92-.06.53-.13,1.06-.22,1.59.79.27,1.42.89,1.72,1.67,1.57-.54,3.09-1.22,4.55-2.07,2.02-1.17,3.82-2.56,5.38-4.12-.67-3.23-2.23-6.12-4.41-8.43-.33-.01-.67-.02-1.01-.02-1.82,0-3.64.2-5.44.58,0,.06.01.13.01.2,0,.75-.45,1.39-1.08,1.69Z"/>
          <path class="cls-2" d="m65.31,14.88c-1.51,1.45-3.22,2.76-5.14,3.86-1.53.88-3.14,1.61-4.79,2.16,0,.06,0,.12,0,.18,0,1.56-1.26,2.82-2.82,2.82-.19,0-.37-.02-.54-.05-.82,2.14-1.88,4.15-3.19,5.98.59.35.98.98.98,1.71,0,.28-.06.55-.17.8.88.76,1.8,1.45,2.75,2.06,7.53-1.94,13.1-8.78,13.1-16.92,0-.88-.07-1.74-.19-2.59Z"/>
          <path class="cls-2" d="m41.37,19.93c.07-.01.13-.02.2-.02.68,0,1.24.49,1.35,1.14,1.39.26,2.83.39,4.3.39.85,0,1.7-.05,2.55-.14,0-.08-.01-.15-.01-.22,0-1.56,1.26-2.82,2.82-2.82.03,0,.06,0,.09,0,.08-.5.16-1.01.21-1.53.32-3,.13-5.92-.49-8.66-.72-.02-1.34-.45-1.63-1.07-1.69.59-3.33,1.34-4.91,2.25-1.4.81-2.7,1.71-3.9,2.69.29.43.45.94.45,1.49,0,1.29-.9,2.36-2.11,2.62.09.42.18.85.29,1.27.23.89.49,1.75.79,2.6Z"/>
          <path class="cls-2" d="m46.33,30.22c-1.91-2.19-3.55-4.74-4.81-7.57-.74-.03-1.33-.63-1.33-1.37,0-.02,0-.04,0-.06-1.47-.46-2.87-1.06-4.18-1.79-.16.18-.39.31-.65.34-1.15,2.07-1.98,4.24-2.46,6.44,2.28,3.93,6.03,6.89,10.51,8.11.88-.67,1.71-1.42,2.5-2.23-.05-.17-.08-.36-.08-.55,0-.5.19-.96.49-1.31Z"/>
          <path class="cls-2" d="m46.31,32.82s-.02.02-.03.03c-.61.61-1.24,1.17-1.89,1.7,1.18.25,2.39.38,3.64.38,1.09,0,2.16-.1,3.2-.3-.72-.49-1.41-1.04-2.09-1.62-.35.31-.81.5-1.32.5-.61,0-1.15-.27-1.52-.7Z"/>
          <path class="cls-2" d="m34.21,18.74c0-.14.03-.27.08-.39-1.31-.91-2.5-1.97-3.56-3.17-.1.75-.16,1.51-.16,2.29,0,2.73.63,5.31,1.74,7.62.5-1.9,1.25-3.78,2.23-5.58-.21-.19-.34-.46-.34-.76Z"/>
          <path class="cls-2" d="m49.96,22.1c-.91.1-1.82.16-2.74.16-1.51,0-2.98-.14-4.4-.4-.1.22-.26.4-.45.54,1.23,2.73,2.82,5.19,4.67,7.3.25-.11.51-.17.8-.17.07,0,.14,0,.21.01,1.31-1.8,2.39-3.8,3.22-5.99-.59-.32-1.06-.83-1.3-1.46Z"/>
        </g>
        <path class="cls-2" d="m44.24,38.44v17.08h7.57v-17.06c-1.22.22-2.47.34-3.75.34s-2.58-.12-3.83-.35Z"/>
        <path class="cls-2" d="m96.08,35.86v-5.7c0-6.77-5.52-9.67-9.22-9.97h-17.67c-.34,2.71-1.19,5.26-2.46,7.56h19.65c.72.09,2.13.5,2.13,2.41v5.87c0,.15-.1,1.33-.68,1.93-.37.38-1.03.57-1.96.57h-20.54v-8.59c-1.97,2.72-4.56,4.96-7.57,6.51v19.12h7.57v-9.47h20.54c3.82,0,6.14-1.57,7.41-2.89,2.72-2.82,2.81-6.59,2.8-7.36Z"/>
      </g>
      <path class="cls-3" d="m30.86,30.01c0,.05.01.09.01.15v5.87c0,.15-.1,1.33-.67,1.93-.37.38-1.03.57-1.96.57H7.69v-10.79h21.05c.22.03.51.09.8.21-1.33-2.35-2.23-4.98-2.58-7.77H.12S.12,55.58.12,55.58h7.58v-10.28l16.63,10.28h14.06l-15-9.47h4.85c3.82,0,6.14-1.57,7.42-2.89,2.27-2.36,2.71-5.37,2.78-6.75-3.01-1.53-5.6-3.76-7.57-6.47Z"/>
      <g>
        <path class="cls-2" d="m70.1,1.4c.26,0,.52,0,.74.15.24.15.36.41.36.68,0,.26-.1.49-.32.64-.21.16-.46.18-.72.18h-.52v1.12h-.28V1.4h.73Zm.59,1.29c.16-.1.24-.28.24-.46,0-.24-.13-.43-.35-.52-.18-.08-.39-.06-.58-.06h-.36v1.15h.48c.2,0,.39,0,.56-.11Z"/>
        <path class="cls-2" d="m72.52,3.96c.3,0,.61-.17.74-.45h.29c-.14.41-.56.72-1,.72-.6,0-1.08-.47-1.08-1.08s.47-1.07,1.07-1.07c.32,0,.62.15.83.4.19.24.23.48.24.77h-1.86c.02.39.39.71.77.71Zm.02-1.62c-.39,0-.73.27-.8.65h1.58c-.07-.36-.41-.65-.79-.65Z"/>
        <path class="cls-2" d="m75.27,2.12v.25h-1.01v1.81h-.27v-2.06h1.28Z"/>
        <path class="cls-2" d="m77.42,4.18h-.28v-1.74l-1.25,1.74h-.28v-2.06h.28v1.64l1.17-1.64h.37v2.06Z"/>
        <path class="cls-2" d="m78.94,4.23c-.61,0-1.12-.45-1.12-1.08s.52-1.07,1.11-1.07c.44,0,.86.26,1.02.67h-.31c-.14-.24-.42-.4-.7-.4-.45,0-.84.34-.84.8s.36.82.82.82c.32,0,.54-.13.72-.38h.31c-.18.4-.56.65-1,.65Z"/>
        <path class="cls-2" d="m80.03,2.12h1.41v.25h-.56v1.8h-.27v-1.8h-.57v-.25Z"/>
        <path class="cls-2" d="m81.94,2.48c.16-.27.52-.4.82-.4s.58.12.84.4c.12.11.24.38.24.68,0,.61-.51,1.07-1.11,1.07-.3,0-.64-.15-.78-.43v1.1h-.28v-2.78h.26v.35Zm.82-.13c-.45,0-.82.33-.82.79,0,.23.06.41.22.58.15.16.37.25.59.25.46,0,.83-.34.83-.8s-.36-.81-.81-.81Z"/>
        <path class="cls-2" d="m86.07,4.18v-.39c-.16.29-.47.44-.8.44s-.64-.14-.91-.44c-.07-.08-.2-.34-.2-.65,0-.27.14-.56.21-.62.31-.33.6-.44.89-.44.32,0,.65.14.8.44v-.39h.27v2.06h-.27Zm-.8-.22c.43,0,.8-.37.8-.8,0-.45-.35-.82-.8-.82s-.82.36-.82.82.39.8.83.8Z"/>
        <path class="cls-2" d="m86.57,2.12h1.41v.25h-.56v1.8h-.27v-1.8h-.57v-.25Z"/>
        <path class="cls-2" d="m88.78,4.9h-.29l.32-.79-.79-1.99h.3l.66,1.64.7-1.64h.3l-1.19,2.78Z"/>
        <path class="cls-2" d="m90.5,2.48c.16-.27.52-.4.82-.4s.58.12.84.4c.12.11.25.38.25.68,0,.61-.51,1.07-1.11,1.07-.3,0-.64-.15-.78-.43v1.1h-.28v-2.78h.26v.35Zm.82-.13c-.45,0-.82.33-.82.79,0,.23.06.41.22.58.15.16.37.25.59.25.46,0,.83-.34.83-.8s-.36-.81-.81-.81Z"/>
        <path class="cls-2" d="m94.62,4.18v-.39c-.16.29-.47.44-.8.44s-.64-.14-.91-.44c-.08-.08-.2-.34-.2-.65,0-.27.14-.56.21-.62.31-.33.6-.44.89-.44.32,0,.65.14.8.44v-.39h.27v2.06h-.27Zm-.8-.22c.43,0,.8-.37.8-.8,0-.45-.35-.82-.8-.82s-.82.36-.82.82.39.8.83.8Z"/>
        <path class="cls-2" d="m69.6,6.63v.87h1.18v-.87h.28v2.06h-.28v-.93h-1.18v.93h-.28v-2.06h.28Z"/>
        <path class="cls-2" d="m73.36,8.68v-.39c-.16.29-.47.44-.8.44s-.64-.14-.91-.44c-.08-.08-.2-.34-.2-.65,0-.27.14-.56.21-.62.31-.33.6-.44.89-.44.32,0,.65.14.8.44v-.39h.27v2.06h-.27Zm-.8-.22c.43,0,.8-.37.8-.8,0-.46-.35-.82-.8-.82s-.82.36-.82.82.39.8.83.8Z"/>
        <path class="cls-2" d="m74.1,8.68v-2.06h.27v1.8h1.18v-1.8h.28v1.8h.17v.57h-.28v-.32h-1.62Z"/>
        <path class="cls-2" d="m78.12,8.68h-.28v-1.74l-1.25,1.74h-.28v-2.06h.28v1.64l1.17-1.64h.37v2.06Z"/>
        <path class="cls-2" d="m79.59,8.73c-.58,0-1.08-.47-1.08-1.06s.48-1.09,1.08-1.09,1.07.49,1.07,1.06-.47,1.09-1.07,1.09Zm0-.27c.46,0,.79-.38.79-.82,0-.23-.08-.41-.24-.57-.15-.14-.35-.23-.55-.23-.46,0-.8.37-.8.82s.36.8.8.8Z"/>
        <path class="cls-2" d="m81.33,6.63v.87h1.18v-.87h.28v2.06h-.28v-.93h-1.18v.93h-.28v-2.06h.28Z"/>
        <path class="cls-2" d="m85.08,8.68v-.39c-.16.29-.47.44-.8.44s-.64-.14-.91-.44c-.08-.08-.2-.34-.2-.65,0-.27.14-.56.21-.62.31-.33.6-.44.89-.44.32,0,.65.14.8.44v-.39h.27v2.06h-.27Zm-.8-.22c.43,0,.8-.37.8-.8,0-.46-.35-.82-.8-.82s-.82.36-.82.82.39.8.83.8Z"/>
        <path class="cls-2" d="m87.19,8.68h-.28v-1.8h-.54l-.47,1.8h-.29l.56-2.06h1.02v2.06Z"/>
        <path class="cls-2" d="m87.67,6.63h.28v.8h.33c.18,0,.37.02.54.14.16.12.24.29.24.49,0,.21-.1.41-.28.52-.17.11-.37.11-.55.12h-.56v-2.06Zm.28,1.8h.22c.14,0,.28.01.4-.04.14-.06.22-.18.22-.34,0-.12-.06-.24-.15-.29h0c-.11-.07-.24-.08-.38-.08h-.3v.76Z"/>
        <path class="cls-2" d="m89.7,6.63v.87h1.18v-.87h.28v2.06h-.28v-.93h-1.18v.93h-.28v-2.06h.28Z"/>
        <path class="cls-2" d="m92.63,8.73c-.58,0-1.08-.47-1.08-1.06s.48-1.09,1.08-1.09,1.07.49,1.07,1.06-.47,1.09-1.07,1.09Zm0-.27c.46,0,.79-.38.79-.82,0-.23-.08-.41-.24-.57-.15-.14-.35-.23-.55-.23-.45,0-.8.37-.8.82s.36.8.8.8Z"/>
        <path class="cls-2" d="m95.38,6.63v.25h-1.01v1.81h-.27v-2.06h1.28Z"/>
        <path class="cls-2" d="m96.64,8.73c-.58,0-1.08-.47-1.08-1.06s.48-1.09,1.08-1.09,1.07.49,1.07,1.06-.47,1.09-1.07,1.09Zm0-.27c.46,0,.79-.38.79-.82,0-.23-.07-.41-.24-.57-.15-.14-.35-.23-.55-.23-.46,0-.8.37-.8.82s.36.8.8.8Z"/>
        <path class="cls-2" d="m69.43,13.51h-.28v-.58h.14l.38-1.8h1.02v1.8h.17v.58h-.28v-.32h-1.16v.32Zm.45-2.12l-.3,1.55h.84v-1.55h-.54Z"/>
        <path class="cls-2" d="m72.17,13.24c-.58,0-1.08-.47-1.08-1.06s.48-1.09,1.08-1.09,1.07.49,1.07,1.06-.47,1.09-1.07,1.09Zm0-.27c.46,0,.79-.38.79-.82,0-.23-.07-.41-.24-.57-.15-.14-.35-.23-.55-.23-.46,0-.8.37-.8.82s.36.8.8.8Z"/>
        <path class="cls-2" d="m74.04,11.13s.89,1.7.89,1.71l.89-1.71h.41v2.06h-.28v-1.75l-.9,1.75h-.23s-.91-1.75-.91-1.75v1.75h-.27v-2.06h.41Z"/>
        <path class="cls-2" d="m77.67,12.97c.3,0,.61-.17.74-.45h.29c-.14.41-.56.72-1,.72-.6,0-1.08-.47-1.08-1.07s.47-1.07,1.07-1.07c.32,0,.62.15.83.4.19.24.23.48.24.77h-1.86c.02.39.4.71.78.71Zm.02-1.62c-.39,0-.73.27-.8.65h1.58c-.07-.36-.41-.65-.79-.65Z"/>
        <path class="cls-2" d="m79.42,11.13v.87h1.18v-.87h.28v2.06h-.28v-.93h-1.18v.93h-.28v-2.06h.28Z"/>
        <path class="cls-2" d="m83.17,13.19v-.39c-.16.29-.47.44-.8.44s-.64-.14-.91-.44c-.07-.08-.2-.34-.2-.65,0-.27.14-.56.21-.62.31-.33.6-.44.89-.44.32,0,.65.14.8.44v-.39h.27v2.06h-.27Zm-.8-.22c.43,0,.8-.37.8-.8,0-.45-.35-.82-.8-.82s-.82.36-.82.82.39.8.83.8Z"/>
      </g>
      <g>
        <g>
          <path class="cls-2" d="m111.21,1.88h-4.75c-1.92,0-3.49,1.57-3.49,3.49s1.57,3.49,3.49,3.49h4.74c.69,0,1.25.56,1.25,1.25s-.56,1.25-1.25,1.25h-4.75c-.69,0-1.25-.56-1.25-1.27v-.83h-.83l-1.41.02v.83c0,1.93,1.57,3.49,3.49,3.49h4.75c1.93,0,3.49-1.57,3.49-3.49s-1.57-3.49-3.49-3.49h-4.75c-.69,0-1.25-.56-1.25-1.25s.56-1.25,1.25-1.25h4.75c.69,0,1.25.56,1.25,1.27v.83h.83l1.41-.02v-.83c0-1.93-1.57-3.49-3.49-3.49Z"/>
          <path class="cls-2" d="m125.04,1.88v5.86c0,2-1.62,3.62-3.62,3.62s-3.62-1.63-3.62-3.62V1.88h-2.24v5.86c0,3.23,2.63,5.86,5.86,5.86s5.86-2.63,5.86-5.86V1.88h-2.24Z"/>
        </g>
        <path class="cls-4" d="m101.47,12.52c0,.62-.51,1.13-1.13,1.13s-1.13-.51-1.13-1.13.51-1.13,1.13-1.13,1.13.51,1.13,1.13Z"/>
      </g>
    </g>
  </g>
</svg>