<?xml version="1.0" encoding="UTF-8"?>
<svg id="_Слой_2" data-name="Слой 2" xmlns="http://www.w3.org/2000/svg" viewBox="0 0 206.55 115.89">
  <defs>
    <style>
      .cls-1 {
        fill: #ed1c24;
        stroke-width: 0px;
      }
    </style>
  </defs>
  <g id="Layer_1" data-name="Layer 1">
    <g>
      <path class="cls-1" d="m24.62,103.58c0,6.8-5.51,12.31-12.31,12.31S0,110.38,0,103.58s5.51-12.31,12.31-12.31,12.31,5.51,12.31,12.31Z"/>
      <path class="cls-1" d="m182.79,0v73.99c0,9.57-7.79,17.36-17.36,17.36s-17.37-7.79-17.37-17.37l-.02-37.86c0-19.2-15.63-34.83-34.84-34.83h-39.6c-19.21,0-34.83,15.63-34.83,34.83s15.58,34.79,34.76,34.84l5.88.06h.13c6.11,0,11.08,4.62,11.08,10.31s-4.97,10.31-11.08,10.31h-38.58c1.41,3.72,2.18,7.74,2.18,11.94s-.76,8.13-2.13,11.81h38.53c19.21,0,34.84-15.29,34.84-34.07s-15.59-34.04-34.76-34.07l-5.87-.07h-.14c-6.11,0-11.07-4.97-11.07-11.07s4.96-11.07,11.07-11.07h39.6c6.1,0,11.07,4.97,11.07,11.08l.03,37.86c0,22.67,18.44,41.12,41.12,41.12s41.12-18.45,41.12-41.12V0h-23.76Z"/>
    </g>
  </g>
</svg>