<?xml version="1.0" encoding="UTF-8"?>
<svg id="_Слой_2" data-name="Слой 2" xmlns="http://www.w3.org/2000/svg" viewBox="0 0 115.98 115.98">
  <defs>
    <style>
      .cls-1 {
        fill: #2e52a4;
        stroke-width: 0px;
      }
    </style>
  </defs>
  <g id="Layer_1" data-name="Layer 1">
    <g>
      <path class="cls-1" d="m18.76,76.34h19.63c3.06,0,5.55-2.32,5.55-5.17s-2.49-5.16-5.55-5.16h-.07l-2.95-.03c-9.6-.02-17.41-7.84-17.41-17.45s7.83-17.45,17.44-17.45h19.84c9.62,0,17.45,7.83,17.45,17.45v18.97c0,4.8,3.91,8.7,8.71,8.7s8.69-3.9,8.69-8.69V28.07c0-3.39-4.22-23.42-29.91-28.03-.73-.03-1.46-.05-2.2-.05C25.97,0,0,25.96,0,57.99c0,1.01.03-.02.08.99,0,9.25,7.45,17.36,18.68,17.36Z"/>
      <path class="cls-1" d="m103.44,21.97c-.36-.18-1.44-.5-1.44,2.05v43.47c0,11.35-9.24,20.59-20.59,20.59s-20.6-9.24-20.6-20.59l-.02-18.97c0-3.06-2.49-5.55-5.54-5.55h-19.84c-3.06,0-5.54,2.49-5.54,5.54s2.49,5.54,5.54,5.54h.07l2.94.04c9.6.01,17.41,7.67,17.41,17.07s-7.83,17.06-17.45,17.06H13.89c-3.25,0-2.77,3.08-2.41,4.38,10.57,14.18,27.47,23.36,46.51,23.36,32.03,0,57.99-25.96,57.99-57.99,0-13.61-4.69-26.13-12.54-36.02Z"/>
    </g>
  </g>
</svg>