<?xml version="1.0"?>
<svg width="160" height="160" xmlns="http://www.w3.org/2000/svg" xmlns:svg="http://www.w3.org/2000/svg" data-name="Слой 2">
 <defs>
  <style>.cls-1 {
        fill: #ec1c2b;
      }

      .cls-1, .cls-2 {
        stroke-width: 0px;
      }

      .cls-2 {
        fill: #2e52a4;
      }</style>
 </defs>
 <g class="layer">
  <title>Layer 1</title>
  <g data-name="Layer 1" id="Layer_1" transform="rotate(162.844 81 80.7173)">
   <g id="svg_1">
    <path class="cls-1" d="m95.26,23.88c-4.15,-3.1 -5,-8.97 -1.91,-13.11c3.09,-4.15 8.96,-5 13.11,-1.92c4.15,3.1 5,8.96 1.91,13.11c-3.09,4.15 -8.96,5.01 -13.11,1.91l0,0.01z" id="svg_2"/>
    <path class="cls-2" d="m138.92,125.56c23.67,-31.74 17.1,-76.82 -14.64,-100.5c-2.83,-2.11 -5.76,-3.97 -8.78,-5.61c-0.3,1.45 -0.83,2.87 -1.58,4.22c2.64,1.46 5.22,3.11 7.7,4.96c29.77,22.2 35.93,64.49 13.73,94.26c-22.2,29.78 -64.48,35.94 -94.25,13.74c-29.79,-22.19 -35.95,-64.48 -13.74,-94.25c14.17,-19.01 36.52,-28.39 58.58,-26.91c0.09,-1.49 0.4,-2.98 0.94,-4.4c-23.73,-1.8 -47.86,8.2 -63.11,28.65c-23.67,31.75 -17.1,76.83 14.64,100.5c31.74,23.67 76.83,17.1 100.5,-14.65l0.01,-0.01z" id="svg_3"/>
   </g>
  </g>
 </g>
</svg>