<?xml version="1.0" encoding="UTF-8"?>
<svg id="_Слой_2" data-name="Слой 2" xmlns="http://www.w3.org/2000/svg" xmlns:xlink="http://www.w3.org/1999/xlink" viewBox="0 0 199.33 199.33">
  <defs>
    <style>
      .cls-1 {
        fill: none;
      }

      .cls-1, .cls-2 {
        stroke-width: 0px;
      }

      .cls-3 {
        letter-spacing: -.01em;
      }

      .cls-4 {
        clip-path: url(#clippath);
      }

      .cls-5 {
        fill: #fff;
        font-family: ArialMT, Arial;
        font-size: 36px;
      }

      .cls-2 {
        fill: #2e52a4;
      }

      .cls-6 {
        letter-spacing: -.01em;
      }

      .cls-7 {
        letter-spacing: -.07em;
      }
    </style>
    <clipPath id="clippath">
      <path class="cls-1" d="m191.66,137.93c-21.13,50.81-79.45,74.87-130.26,53.74C10.59,170.53-13.47,112.21,7.66,61.4,28.8,10.59,87.12-13.47,137.93,7.67c50.81,21.13,74.87,79.45,53.74,130.26Z"/>
    </clipPath>
  </defs>
  <g id="Layer_1" data-name="Layer 1">
    <path class="cls-2" d="m199.3,99.66c0,55.03-44.61,99.64-99.64,99.64S.03,154.69.03,99.66,44.64.03,99.67.03s99.64,44.61,99.64,99.64Z"/>
  </g>
  <g id="Layer_3" data-name="Layer 3">
    <g class="cls-4">
      <text class="cls-5" transform="translate(38.79 9.28) rotate(22.58)"><tspan x="0" y="0" xml:space="preserve">    Σε γνωρί</tspan><tspan class="cls-7" x="180.9" y="0">ζ</tspan><tspan x="194.36" y="0">ω </tspan><tspan x="0" y="43.2">από την </tspan><tspan class="cls-3" x="137.92" y="43.2">κ</tspan><tspan x="155.48" y="43.2">όψη</tspan><tspan class="cls-6" x="0" y="86.4">τ</tspan><tspan x="13.71" y="86.4">ου σ</tspan><tspan class="cls-6" x="85.64" y="86.4">π</tspan><tspan x="109.97" y="86.4">αθιού </tspan><tspan x="0" y="129.6">την τρομερή,</tspan><tspan x="0" y="172.8">σε γνωρί</tspan><tspan class="cls-7" x="140.85" y="172.8">ζ</tspan><tspan x="154.32" y="172.8">ω </tspan><tspan x="0" y="216">από την όψη,</tspan></text>
    </g>
  </g>
</svg>