<?xml version="1.0" encoding="UTF-8"?>
<svg id="_Слой_2" data-name="Слой 2" xmlns="http://www.w3.org/2000/svg" xmlns:xlink="http://www.w3.org/1999/xlink" viewBox="0 0 199.33 199.33">
  <defs>
    <style>
      .cls-1 {
        fill: none;
      }

      .cls-1, .cls-2, .cls-3 {
        stroke-width: 0px;
      }

      .cls-2 {
        fill: #fff;
      }

      .cls-4 {
        clip-path: url(#clippath);
      }

      .cls-3 {
        fill: #2e52a4;
      }
    </style>
    <clipPath id="clippath">
      <path class="cls-1" d="m191.66,137.93c-21.13,50.81-79.45,74.87-130.26,53.74C10.59,170.53-13.47,112.21,7.66,61.4,28.8,10.59,87.12-13.47,137.93,7.67c50.81,21.13,74.87,79.45,53.74,130.26Z"/>
    </clipPath>
  </defs>
  <g id="Layer_1" data-name="Layer 1">
    <path class="cls-3" d="m199.3,99.66c0,55.03-44.61,99.64-99.64,99.64S.03,154.69.03,99.66,44.64.03,99.67.03s99.64,44.61,99.64,99.64Z"/>
  </g>
  <g id="Layer_3" data-name="Layer 3">
    <g class="cls-4">
      <g>
        <path class="cls-2" d="m90.19-7.46l-2.93,7.06.98.45-2.15,4.8-2.11-.88,1.12-2.96-5.71-2.37-1.34,2.86-2.12-.88,1.94-4.87.87.3c.63-.41,1.21-.93,1.69-1.51.67-.83,1.22-1.79,1.63-2.79l.92-2.22,7.2,3Zm-6.06,1.12c-.31.76-.78,1.52-1.31,2.21-.35.48-.82.92-1.27,1.27l2.99,1.24,2.05-4.93-2.03-.85-.44,1.05Z"/>
        <path class="cls-2" d="m94.65-5.61l-.5,5.01c-.07.58-.17,1.34-.25,1.87l.07.03c.32-.45.74-1.06,1.09-1.54l2.97-3.96,2.99,1.24-4.58,5.07c-2.79,3.06-4.25,4.13-5.64,4.61-1.31.45-2.48.33-3.21.12l.37-2.62c.38.07.89.09,1.42.03.52-.04,1.19-.31,1.63-.64.15-.11.27-.23.32-.34.05-.11.08-.25.08-.51l.12-9.66,3.12,1.3Z"/>
        <path class="cls-2" d="m102.43-2.37l3.58,1.49-.44,3.82c-.08.6-.2,1.63-.35,2.52l.05.02c.42-.54,1.13-1.42,1.75-2.18l2.33-2.8,3.55,1.47-3.2,9.26-2.6-1.08,1.36-3.68c.3-.78.79-2.12,1.22-3.2l-.06-.02c-.85,1.05-1.03,1.33-2.1,2.59l-2.73,3.18-2.05-.85.42-4.03c.11-.95.36-2.37.5-3.3l-.07-.03c-.5,1.11-1.05,2.38-1.41,3.12l-1.63,3.5-2.51-1.04,4.38-8.77Z"/>
        <path class="cls-2" d="m120.04,12.99c-.35.85-.66,1.7-.76,2.24l-2.53-1.05.21-.97-.06-.02c-.89.47-1.97.48-3.05.03-1.83-.76-2.37-2.54-1.77-3.98.98-2.35,3.54-2.58,6.74-1.25l.05-.11c.21-.5.23-1.29-1.15-1.87-.92-.38-2.03-.48-2.78-.35l.24-2.03c.77-.09,2.2-.04,3.85.65,3.01,1.25,3.21,3.42,2.32,5.56l-1.31,3.16Zm-1.85-3.22c-1.48-.61-2.77-.74-3.21.33-.3.72.04,1.27.66,1.53.68.28,1.47.07,1.89-.43.1-.13.19-.29.26-.46l.41-.98Z"/>
        <path class="cls-2" d="m133.07,10.37l-3.76,9.03-2.81-1.17,2.87-6.89-1.96-.81-.69,1.66c-.91,2.2-1.81,3.62-3.16,4.01-.83.37-1.74.32-2.99-.2l.59-2.31c.46.1.89.09,1.22-.06.74-.32,1.17-1.14,1.8-2.65l1.53-3.68,7.37,3.07Z"/>
        <path class="cls-2" d="m139.34,12.98l3.58,1.49-.44,3.82c-.08.6-.2,1.63-.35,2.52l.06.02c.42-.54,1.13-1.42,1.75-2.18l2.33-2.8,3.55,1.47-3.2,9.26-2.6-1.08,1.36-3.68c.3-.78.79-2.12,1.22-3.2l-.06-.02c-.85,1.05-1.03,1.33-2.1,2.59l-2.73,3.18-2.05-.85.42-4.03c.11-.95.36-2.37.5-3.3l-.07-.03c-.5,1.11-1.05,2.38-1.41,3.12l-1.63,3.5-2.51-1.04,4.38-8.77Z"/>
        <path class="cls-2" d="m159.3,26.46c-1.38,3.31-4.35,3.84-6.77,2.84-2.64-1.1-3.95-3.68-2.74-6.6,1.22-2.94,3.92-4,6.84-2.79,2.75,1.14,3.81,3.82,2.67,6.55Zm-6.58-2.63c-.65,1.55-.48,2.98.72,3.48,1.11.46,2.25-.34,2.93-1.99.55-1.33.6-2.91-.67-3.44-1.33-.55-2.42.62-2.98,1.95Z"/>
        <path class="cls-2" d="m170.72,26.03l-3.76,9.03-2.81-1.17,2.87-6.89-1.96-.81-.69,1.66c-.91,2.2-1.81,3.62-3.16,4.01-.83.37-1.74.32-2.99-.2l.59-2.31c.46.1.89.09,1.21-.06.74-.32,1.17-1.14,1.8-2.65l1.53-3.68,7.37,3.07Z"/>
        <path class="cls-2" d="m180.04,35.08c-1.38,3.31-4.35,3.84-6.77,2.84-2.64-1.1-3.95-3.68-2.74-6.6,1.22-2.94,3.92-4,6.84-2.79,2.75,1.14,3.81,3.82,2.67,6.55Zm-6.58-2.63c-.65,1.55-.48,2.98.72,3.48,1.11.46,2.25-.34,2.93-1.99.55-1.33.6-2.91-.67-3.44-1.33-.55-2.42.62-2.98,1.95Z"/>
        <path class="cls-2" d="m191.73,34.77l-2.93,7.06.98.45-2.15,4.8-2.11-.88,1.12-2.96-5.71-2.37-1.34,2.86-2.12-.88,1.94-4.87.87.3c.63-.41,1.21-.93,1.69-1.51.67-.83,1.22-1.79,1.63-2.79l.92-2.22,7.2,3Zm-6.06,1.12c-.31.76-.78,1.52-1.31,2.21-.35.48-.82.92-1.27,1.27l2.99,1.24,2.05-4.93-2.03-.85-.44,1.05Z"/>
        <path class="cls-2" d="m201.25,43.91c-1.38,3.31-4.35,3.85-6.77,2.84-2.64-1.1-3.95-3.68-2.74-6.6,1.22-2.94,3.92-4,6.84-2.79,2.75,1.14,3.81,3.82,2.67,6.55Zm-6.58-2.63c-.65,1.55-.48,2.98.72,3.48,1.11.46,2.25-.34,2.93-1.99.55-1.33.6-2.91-.67-3.44-1.33-.55-2.42.62-2.98,1.95Z"/>
        <path class="cls-2" d="m51.53-1.55l-5.18,12.45-2.81-1.17L47.77-.41l-2.83-1.18-1.23,2.96c-1.33,3.2-2.76,5.5-5.11,5.83-.77.09-1.73,0-2.73-.42l.59-2.42c.64.18,1.25.13,1.7-.07,1.08-.46,1.93-1.99,2.72-3.88l2.27-5.45,8.39,3.49Z"/>
        <path class="cls-2" d="m52.38,9.16c-.41,1.2.52,2.23,1.83,2.78.96.4,1.79.59,2.66.65l-.42,2.06c-1.08,0-2.29-.28-3.51-.79-3.07-1.28-4.08-3.78-2.91-6.61.95-2.29,3.43-4.23,6.57-2.92,2.92,1.21,3.08,3.95,2.15,6.18-.2.48-.43.88-.55,1.07l-5.82-2.42Zm4.11-.55c.28-.68.46-1.95-.83-2.49-1.18-.49-2.12.4-2.5,1.11l3.32,1.38Z"/>
        <path class="cls-2" d="m69.21,9.8l-.9,2.16-2.62-1.09-2.86,6.87-2.81-1.17,2.86-6.87-2.62-1.09.9-2.16,8.05,3.35Z"/>
        <path class="cls-2" d="m74.7,22.68l-2.77-1.15,1.41-3.4-.57-.24c-.59-.25-1.13-.15-1.56.11-.67.26-1.26,1.01-1.82,1.61-.22.21-.39.36-.66.59l-2.99-1.24c.34-.19.67-.46.99-.76.59-.6,1.47-1.62,2.29-1.97.43-.19.9-.3,1.42-.19l.02-.06c-.97-.53-2-1.76-1.4-3.2.47-1.13,1.38-1.5,2.44-1.54.98-.07,2.32.31,3.55.83,1.4.58,2.6,1.21,3.37,1.64l-3.73,8.98Zm.29-8.52c-.22-.14-.49-.29-.93-.47-.91-.38-1.83-.35-2.17.48-.32.78.4,1.53,1.23,1.88.44.18.69.27.93.37l.94-2.25Z"/>
        <path class="cls-2" d="m84.36,16.22c.72.19,2.33.71,3.73,1.29,1.53.64,4.4,2.03,3.51,4.17-.48,1.16-1.68,1.38-2.65,1.17l-.02.06c1.26.78,1.83,1.89,1.32,3.13-1.07,2.57-4.65,1.34-6.5.57-1.26-.52-2.55-1.17-3.09-1.48l3.7-8.9Zm-.3,8.48c.28.16.5.25.93.43.96.4,2.04.52,2.4-.36.33-.79-.26-1.45-1.59-2l-.79-.33-.95,2.27Zm1.64-3.89l.72.3c1.13.47,1.97.47,2.25-.21.25-.59-.11-1.15-1.23-1.62-.37-.15-.64-.23-.96-.34l-.78,1.87Z"/>
        <path class="cls-2" d="m106.73,25.41l-3.76,9.03-2.83-1.17,2.86-6.87-2.77-1.15-2.86,6.87-2.81-1.17,3.76-9.03,8.4,3.5Z"/>
        <path class="cls-2" d="m111.77,27.5l-1.11,2.68c.39.1.9.24,1.51.5,2,.83,3.71,2.54,2.75,4.85-.48,1.16-1.29,1.7-2.24,1.91-1.47.32-3.15-.14-4.5-.7-1.03-.43-2.05-.92-2.94-1.42l3.73-8.98,2.81,1.17Zm-3.01,7.2c.23.12.5.25.83.39.94.39,2.06.42,2.49-.63.42-1.02-.36-1.73-1.21-2.09-.44-.18-.74-.26-1.02-.32l-1.1,2.64Zm12.34-3.32l-3.76,9.03-2.81-1.17,3.76-9.03,2.81,1.17Z"/>
        <path class="cls-2" d="m131.23,35.6l-3.76,9.03-2.81-1.17,2.87-6.89-1.96-.81-.69,1.66c-.91,2.2-1.81,3.62-3.16,4.01-.83.37-1.74.32-2.99-.2l.59-2.31c.46.1.89.09,1.21-.06.74-.32,1.17-1.14,1.8-2.65l1.53-3.68,7.37,3.07Z"/>
        <path class="cls-2" d="m136.11,37.63l-1.15,2.77c-.6,1.44-1.09,2.42-1.68,3.61l.07.05c.85-.86,1.39-1.46,2.11-2.16l3.37-3.15,3.44,1.43-3.76,9.03-2.66-1.11,1.14-2.75c.58-1.4.9-1.96,1.79-3.83l-.07-.03c-.76.83-1.23,1.33-1.95,2.03-1.1,1.02-2.43,2.3-3.64,3.45l-3.42-1.42,3.76-9.03,2.66,1.11Z"/>
        <path class="cls-2" d="m151.01,43.83l-1.36,3.27,2.84,1.18,1.36-3.27,2.81,1.17-3.76,9.03-2.81-1.17,1.49-3.58-2.84-1.18-1.49,3.58-2.81-1.17,3.76-9.03,2.81,1.17Z"/>
        <path class="cls-2" d="m163.58,57.09c-.35.85-.66,1.7-.76,2.24l-2.53-1.05.21-.97-.06-.02c-.89.47-1.98.48-3.05.03-1.83-.76-2.37-2.54-1.77-3.98.98-2.35,3.54-2.58,6.74-1.25l.05-.11c.21-.5.23-1.29-1.15-1.87-.92-.38-2.03-.48-2.78-.35l.24-2.03c.77-.09,2.2-.04,3.85.65,3.01,1.25,3.21,3.42,2.32,5.56l-1.31,3.16Zm-1.85-3.22c-1.48-.62-2.77-.74-3.21.33-.3.72.04,1.27.66,1.53.68.28,1.47.07,1.89-.43.1-.13.19-.29.25-.46l.41-.98Z"/>
        <path class="cls-2" d="m180.78,56.21l-3.76,9.03-2.83-1.18,2.86-6.87-2.77-1.15-2.86,6.87-2.81-1.17,3.76-9.03,8.4,3.5Z"/>
        <path class="cls-2" d="m190.12,65.27c-1.38,3.31-4.35,3.85-6.77,2.84-2.64-1.1-3.95-3.68-2.74-6.6,1.22-2.94,3.92-4,6.84-2.79,2.75,1.14,3.81,3.82,2.67,6.55Zm-6.58-2.63c-.65,1.55-.48,2.98.72,3.48,1.11.46,2.24-.34,2.93-1.99.55-1.33.6-2.91-.67-3.44-1.33-.55-2.42.62-2.98,1.95Z"/>
        <path class="cls-2" d="m196.24,62.63l-1.17,2.83c-.42,1-.26,1.67.72,2.08.46.19,1.04.21,1.38.12l1.64-3.95,2.81,1.17-3.81,9.16-2.81-1.17,1.41-3.4h-.04c-.7.11-1.66-.03-2.51-.39-1.94-.81-2.61-2.38-1.71-4.53l1.28-3.08,2.81,1.17Z"/>
        <path class="cls-2" d="m32.79,16.84c.79.18,2.32.66,3.75,1.25,1.72.71,2.7,1.32,3.4,2.24.68.82.93,1.93.46,3.07-.45,1.09-1.52,1.84-3.15,1.79l-.02.04c1.27.96,1.87,2.49,1.21,4.08-.48,1.14-1.36,1.82-2.4,2.12-1.2.34-2.89.12-5.36-.91-1.38-.58-2.38-1.1-2.97-1.45l5.09-12.23Zm-1.49,11.45c.26.15.59.29,1.07.49,1.27.53,2.61.5,3.15-.81.51-1.24-.41-2.21-1.81-2.79l-.96-.4-1.46,3.51Zm2.3-5.52l.92.38c1.5.62,2.53.34,2.91-.59.39-.94-.12-1.74-1.4-2.27-.63-.26-.99-.37-1.23-.43l-1.21,2.9Z"/>
        <path class="cls-2" d="m45.71,36.34c-.6.03-1.62-.17-2.69-.62-2.92-1.21-4.04-3.78-2.86-6.61,1.1-2.64,3.81-4.05,7.17-2.65.74.31,1.5.77,2,1.24l-1.31,1.9c-.27-.29-.72-.62-1.45-.93-1.48-.61-2.88.04-3.47,1.52-.68,1.64.06,2.99,1.42,3.56.67.28,1.23.38,1.73.37l-.53,2.21Z"/>
        <path class="cls-2" d="m50.7,34.45c-.41,1.2.52,2.23,1.83,2.78.96.4,1.79.59,2.66.65l-.42,2.06c-1.08,0-2.29-.28-3.51-.79-3.07-1.28-4.08-3.78-2.91-6.61.95-2.29,3.43-4.23,6.57-2.92,2.92,1.21,3.08,3.95,2.15,6.18-.2.48-.43.88-.55,1.07l-5.82-2.42Zm4.11-.54c.28-.68.46-1.95-.83-2.49-1.18-.49-2.12.4-2.5,1.11l3.33,1.38Z"/>
        <path class="cls-2" d="m60.49,32.28c.72.19,2.33.71,3.73,1.29,1.53.64,4.4,2.03,3.51,4.17-.48,1.16-1.68,1.38-2.65,1.17l-.02.05c1.26.78,1.83,1.89,1.32,3.13-1.07,2.57-4.65,1.34-6.5.57-1.26-.52-2.55-1.17-3.09-1.48l3.7-8.9Zm-.3,8.48c.28.16.5.25.93.43.96.4,2.04.52,2.41-.37.33-.79-.26-1.45-1.59-2.01l-.79-.33-.94,2.27Zm1.64-3.89l.72.3c1.13.47,1.97.47,2.25-.21.25-.59-.11-1.15-1.23-1.62-.37-.15-.64-.22-.96-.34l-.78,1.87Z"/>
        <path class="cls-2" d="m73.52,37.59l-1.11,2.68c.39.1.9.24,1.5.5,2,.83,3.71,2.54,2.75,4.85-.48,1.16-1.29,1.69-2.24,1.91-1.47.32-3.15-.14-4.5-.7-1.03-.43-2.05-.92-2.94-1.42l3.73-8.98,2.81,1.17Zm-3.01,7.2c.23.12.5.25.83.39.94.39,2.06.42,2.49-.63.42-1.02-.36-1.73-1.21-2.09-.44-.18-.74-.26-1.02-.31l-1.1,2.64Zm12.34-3.32l-3.76,9.03-2.81-1.17,3.76-9.03,2.81,1.17Z"/>
        <path class="cls-2" d="m87.85,43.55l-2.87,6.89,2.22.92,2.87-6.89,2.79,1.16-2.87,6.89,2.22.92,2.87-6.89,2.79,1.16-3.76,9.03-12.8-5.32,3.76-9.03,2.79,1.16Z"/>
        <path class="cls-2" d="m102.89,49.8l-1.36,3.27,2.84,1.18,1.36-3.27,2.81,1.17-3.76,9.03-2.81-1.17,1.49-3.58-2.84-1.18-1.49,3.58-2.81-1.17,3.76-9.03,2.81,1.17Z"/>
        <path class="cls-2" d="m110.7,59.4c-.41,1.19.52,2.23,1.83,2.78.96.4,1.79.59,2.65.65l-.42,2.06c-1.08,0-2.29-.28-3.51-.79-3.07-1.27-4.08-3.78-2.91-6.6.95-2.29,3.43-4.23,6.57-2.92,2.92,1.21,3.08,3.95,2.15,6.18-.2.48-.43.88-.55,1.07l-5.82-2.42Zm4.11-.55c.28-.68.46-1.95-.83-2.49-1.18-.49-2.12.4-2.5,1.11l3.33,1.38Z"/>
        <path class="cls-2" d="m123.18,58.24l-1.15,2.77c-.6,1.44-1.1,2.43-1.68,3.61l.07.05c.86-.86,1.39-1.46,2.11-2.16l3.37-3.15,3.44,1.43-3.76,9.03-2.66-1.11,1.14-2.75c.58-1.4.9-1.96,1.79-3.83l-.07-.03c-.76.83-1.23,1.33-1.95,2.03-1.09,1.02-2.43,2.3-3.64,3.45l-3.42-1.42,3.76-9.03,2.66,1.11Zm2.42-3.37c-.32.82-.21,1.45.3,1.66.55.23,1.06-.16,1.45-.93l1.77.74c-.83,1.67-2.21,2.14-3.8,1.48-1.7-.71-2.09-2.06-1.5-3.68l1.77.74Z"/>
        <path class="cls-2" d="m135.24,63.37c.72.19,2.33.71,3.73,1.29,1.53.64,4.4,2.02,3.51,4.17-.48,1.16-1.68,1.38-2.65,1.17l-.02.06c1.25.78,1.83,1.89,1.32,3.13-1.07,2.57-4.65,1.34-6.5.57-1.26-.52-2.55-1.17-3.09-1.48l3.7-8.9Zm-.3,8.48c.28.16.5.25.93.43.96.4,2.04.52,2.4-.36.33-.79-.26-1.45-1.59-2.01l-.79-.33-.94,2.27Zm1.64-3.89l.72.3c1.13.47,1.97.47,2.25-.21.25-.59-.11-1.15-1.23-1.62-.37-.15-.64-.22-.96-.34l-.78,1.87Z"/>
        <path class="cls-2" d="m152.57,75.65c-1.38,3.31-4.35,3.85-6.77,2.84-2.64-1.1-3.95-3.68-2.74-6.6,1.22-2.94,3.92-4,6.84-2.79,2.75,1.14,3.81,3.82,2.67,6.55Zm-6.58-2.63c-.64,1.55-.48,2.98.72,3.48,1.11.46,2.24-.34,2.93-1.99.55-1.33.6-2.91-.67-3.44-1.33-.55-2.42.62-2.98,1.95Z"/>
        <path class="cls-2" d="m163.99,75.22l-3.76,9.03-2.81-1.17,2.87-6.89-1.96-.81-.69,1.66c-.91,2.2-1.81,3.62-3.16,4.01-.83.37-1.74.32-2.99-.2l.59-2.31c.46.1.89.09,1.22-.06.74-.32,1.17-1.14,1.8-2.65l1.53-3.67,7.37,3.07Z"/>
        <path class="cls-2" d="m166.14,82.46c-.41,1.19.52,2.23,1.83,2.78.96.4,1.79.59,2.66.65l-.42,2.06c-1.08,0-2.29-.28-3.51-.79-3.07-1.28-4.08-3.78-2.91-6.6.95-2.29,3.43-4.23,6.57-2.92,2.92,1.21,3.08,3.95,2.15,6.18-.2.48-.43.88-.55,1.07l-5.82-2.42Zm4.1-.55c.28-.68.46-1.95-.83-2.49-1.18-.49-2.12.4-2.5,1.11l3.32,1.38Z"/>
        <path class="cls-2" d="m178.75,81.35l-1.4,3.36,1.16.48c1.34-2.02,3.5-2.75,5.78-1.8,2.55,1.06,3.49,3.68,2.36,6.42-1.33,3.2-4.11,3.95-6.42,2.99-2.2-.91-3.31-3.04-2.62-5.58l-1.11-.46-1.51,3.62-2.79-1.16,3.76-9.03,2.79,1.16Zm5.05,7.39c.58-1.38.67-2.91-.42-3.36-1.15-.48-2.17.68-2.74,2.07-.61,1.48-.63,2.92.48,3.38,1.05.44,2.05-.56,2.69-2.09Z"/>
        <path class="cls-2" d="m194.69,84.89c1.06-.15,2.56-.11,4.29.61,2.72,1.13,3.75,3.17,2.99,4.99-.65,1.57-2.13,2.15-3.71,1.9l-.02.04c1.46.87,2.36,2.5,1.67,4.16-1.16,2.79-4.35,2.59-6.68,1.62-1.29-.54-2.58-1.4-3.37-2.42l1.5-1.93c.43.53,1.53,1.53,2.7,2.01,1.42.59,2.54.34,2.97-.69.57-1.37-.76-2.24-1.94-2.73l-1.18-.49.87-2.09,1.18.49c1.27.53,2.47.36,2.89-.64.34-.81-.12-1.65-1.32-2.15-.96-.4-2.19-.46-3.04-.4l.19-2.28Z"/>
        <path class="cls-2" d="m26.47,40.01l-1.99,4.78,4.64,1.93,1.99-4.78,2.81,1.17-5.18,12.45-2.81-1.17,2.17-5.21-4.64-1.93-2.17,5.21-2.81-1.17,5.18-12.45,2.81,1.17Z"/>
        <path class="cls-2" d="m39.52,57.48c-.35.85-.66,1.7-.76,2.24l-2.53-1.05.21-.97-.06-.02c-.89.47-1.98.48-3.05.03-1.83-.76-2.37-2.54-1.77-3.98.98-2.35,3.54-2.58,6.74-1.25l.05-.11c.21-.5.23-1.29-1.15-1.87-.92-.38-2.03-.48-2.78-.35l.24-2.02c.77-.09,2.2-.04,3.85.65,3.01,1.25,3.21,3.42,2.32,5.56l-1.31,3.16Zm-1.85-3.22c-1.48-.61-2.77-.74-3.21.33-.3.72.04,1.27.66,1.53.68.28,1.47.07,1.89-.43.1-.13.19-.29.25-.46l.41-.98Z"/>
        <path class="cls-2" d="m47.73,63.17c-.6.03-1.62-.17-2.69-.62-2.92-1.21-4.04-3.78-2.86-6.61,1.1-2.64,3.81-4.05,7.17-2.65.74.31,1.5.77,2,1.24l-1.31,1.9c-.27-.29-.72-.62-1.46-.93-1.48-.61-2.88.04-3.47,1.53-.68,1.64.06,2.99,1.42,3.56.67.28,1.23.38,1.73.37l-.53,2.21Z"/>
        <path class="cls-2" d="m61.17,58.45l-3.76,9.03-2.81-1.17,2.87-6.89-1.96-.81-.69,1.66c-.91,2.2-1.81,3.62-3.16,4.01-.83.37-1.74.32-2.99-.2l.59-2.31c.46.1.89.09,1.21-.06.74-.32,1.17-1.14,1.8-2.65l1.53-3.68,7.37,3.07Z"/>
        <path class="cls-2" d="m63.31,65.69c-.41,1.19.52,2.23,1.83,2.78.96.4,1.79.59,2.65.65l-.42,2.06c-1.08,0-2.29-.28-3.51-.79-3.07-1.28-4.08-3.78-2.91-6.6.95-2.29,3.43-4.23,6.57-2.92,2.92,1.21,3.08,3.95,2.15,6.18-.2.48-.43.88-.55,1.07l-5.82-2.42Zm4.11-.55c.28-.68.46-1.95-.83-2.49-1.18-.49-2.12.4-2.5,1.11l3.33,1.38Z"/>
        <path class="cls-2" d="m81.56,66.93l-2.93,7.06.98.45-2.15,4.8-2.11-.88,1.12-2.96-5.71-2.37-1.34,2.87-2.12-.88,1.94-4.87.87.3c.63-.41,1.21-.93,1.69-1.51.67-.83,1.22-1.79,1.64-2.79l.92-2.22,7.2,3Zm-6.06,1.12c-.31.76-.78,1.52-1.31,2.21-.35.48-.82.92-1.27,1.27l2.99,1.24,2.05-4.93-2.03-.84-.44,1.05Z"/>
        <path class="cls-2" d="m86.84,69.12l-1.36,3.27,2.84,1.18,1.36-3.27,2.81,1.17-3.76,9.03-2.81-1.17,1.49-3.58-2.84-1.18-1.49,3.58-2.81-1.17,3.76-9.03,2.81,1.17Z"/>
        <path class="cls-2" d="m97.38,73.51l-1.15,2.77c-.6,1.44-1.1,2.43-1.68,3.61l.07.05c.85-.86,1.39-1.46,2.11-2.16l3.37-3.15,3.44,1.43-3.76,9.03-2.66-1.11,1.14-2.75c.58-1.4.9-1.96,1.79-3.83l-.07-.03c-.76.83-1.23,1.33-1.95,2.03-1.09,1.02-2.43,2.3-3.64,3.45l-3.42-1.42,3.76-9.03,2.66,1.11Z"/>
        <path class="cls-2" d="m108.57,78.16l-1.5,3.6.3.12,3.79-2.65,3.27,1.36-4.95,2.51c1,.63,1.27,1.89,1.24,3.42,0,.87-.11,2.08-.02,3.11l-2.94-1.22c-.08-.49-.03-1.23.02-2.33.04-1.2-.3-1.99-1.21-2.36l-.28-.12-1.49,3.58-2.81-1.17,3.76-9.03,2.81,1.17Z"/>
        <path class="cls-2" d="m119.23,82.7c.72.19,2.33.71,3.73,1.29,1.53.64,4.4,2.02,3.51,4.17-.48,1.16-1.68,1.38-2.65,1.17l-.02.05c1.26.78,1.84,1.89,1.32,3.13-1.07,2.57-4.65,1.34-6.5.57-1.26-.52-2.55-1.17-3.09-1.48l3.7-8.9Zm-.3,8.48c.28.16.5.25.93.43.96.4,2.04.52,2.41-.36.33-.79-.26-1.45-1.59-2.01l-.79-.33-.94,2.27Zm1.64-3.89l.72.3c1.13.47,1.97.47,2.25-.21.25-.59-.11-1.15-1.23-1.62-.37-.15-.64-.22-.97-.34l-.78,1.87Z"/>
        <path class="cls-2" d="m132.6,98.47c-.6.03-1.62-.17-2.69-.62-2.92-1.21-4.04-3.78-2.86-6.61,1.1-2.64,3.81-4.05,7.17-2.65.74.31,1.5.77,2,1.24l-1.31,1.9c-.27-.29-.72-.62-1.45-.93-1.48-.61-2.88.04-3.47,1.53-.68,1.64.06,2.99,1.42,3.56.66.28,1.23.38,1.73.37l-.53,2.21Z"/>
        <path class="cls-2" d="m137.59,96.58c-.41,1.19.52,2.23,1.83,2.78.96.4,1.79.59,2.66.65l-.42,2.06c-1.08,0-2.29-.28-3.51-.79-3.07-1.28-4.08-3.78-2.91-6.6.95-2.29,3.43-4.23,6.57-2.92,2.92,1.21,3.08,3.95,2.15,6.18-.2.48-.43.88-.55,1.07l-5.82-2.42Zm4.1-.55c.28-.68.47-1.95-.83-2.49-1.18-.49-2.12.4-2.5,1.11l3.32,1.38Z"/>
        <path class="cls-2" d="m149.42,95.15l.26,1.88c.07.57.12,1.11.18,1.66h.04c.45-.38.85-.74,1.28-1.08l1.41-1.15,3.05,1.27-4.76,3.07,1.04,5.98-3.18-1.32-.23-2c-.07-.55-.1-1.1-.13-1.66l-.06-.02c-.42.39-.85.73-1.25,1.08l-1.53,1.27-3.08-1.28,4.98-3.32-1.15-5.68,3.14,1.31Z"/>
        <path class="cls-2" d="m163.71,111.41c-.6.03-1.62-.17-2.69-.62-2.92-1.21-4.04-3.78-2.86-6.61,1.1-2.64,3.81-4.05,7.17-2.65.74.31,1.5.77,2,1.24l-1.31,1.9c-.27-.29-.72-.62-1.46-.93-1.48-.62-2.88.04-3.47,1.52-.68,1.64.06,2.99,1.42,3.56.67.28,1.23.38,1.73.37l-.53,2.21Z"/>
        <path class="cls-2" d="m168.86,103.34c.72.19,2.33.71,3.73,1.29,1.53.64,4.4,2.03,3.51,4.17-.48,1.16-1.68,1.38-2.65,1.17l-.02.06c1.26.78,1.84,1.89,1.32,3.13-1.07,2.57-4.65,1.34-6.5.57-1.26-.52-2.55-1.17-3.09-1.48l3.7-8.9Zm-.3,8.48c.28.16.5.25.93.43.96.4,2.04.52,2.41-.36.33-.79-.26-1.45-1.59-2.01l-.79-.33-.94,2.27Zm1.64-3.89l.72.3c1.13.47,1.97.47,2.25-.21.25-.59-.11-1.15-1.23-1.62-.37-.15-.64-.23-.96-.34l-.78,1.87Z"/>
        <path class="cls-2" d="m186.2,115.62c-1.38,3.31-4.35,3.84-6.77,2.84-2.64-1.1-3.95-3.68-2.74-6.6,1.22-2.94,3.92-4,6.84-2.79,2.75,1.14,3.81,3.82,2.67,6.55Zm-6.58-2.63c-.64,1.55-.48,2.98.72,3.48,1.11.46,2.25-.34,2.93-1.99.55-1.33.6-2.91-.67-3.44-1.33-.55-2.42.62-2.98,1.95Z"/>
        <path class="cls-2" d="m192.41,113.03l-1.15,2.77c-.6,1.44-1.1,2.43-1.68,3.61l.07.05c.85-.86,1.39-1.46,2.11-2.16l3.37-3.15,3.44,1.43-3.76,9.03-2.66-1.11,1.14-2.75c.58-1.4.9-1.96,1.79-3.83l-.07-.03c-.76.83-1.23,1.33-1.95,2.03-1.09,1.02-2.43,2.3-3.64,3.45l-3.42-1.42,3.76-9.03,2.66,1.11Z"/>
        <path class="cls-2" d="m202.94,117.41l.26,1.88c.07.57.12,1.11.18,1.66l.04.02c.45-.4.85-.75,1.28-1.09l1.41-1.15,3.05,1.27-4.76,3.07,1.04,5.98-3.18-1.32-.23-2c-.07-.55-.1-1.1-.13-1.66l-.06-.02c-.42.39-.85.73-1.25,1.08l-1.53,1.27-3.08-1.28,4.98-3.32-1.15-5.68,3.14,1.31Z"/>
        <path class="cls-2" d="m24.31,65.1l-4.26,10.23,1.21.59-2.33,5.23-2.12-.88,1.16-3.2-7.29-3.03-1.45,3.08-2.14-.89,2.09-5.33,1.08.36c.86-.66,1.65-1.42,2.33-2.28.86-1.12,1.57-2.42,2.2-3.94l1.38-3.32,8.15,3.39Zm-7.18,1.65c-.6,1.44-1.37,2.77-2.26,3.87-.54.67-1.17,1.29-1.73,1.75l4.14,1.72,3.27-7.87-2.73-1.14-.69,1.66Z"/>
        <path class="cls-2" d="m24.36,72.68c.49-1.18.87-2.19,1.19-3.06l2.44,1.01-.39,1.31.04.02c1.06-.67,2.31-.75,3.62-.21,1.98.82,3.03,3.28,1.84,6.16-1.37,3.29-4.1,3.97-6.11,3.13-1.09-.45-1.75-1.25-1.92-2.01l-.04-.02-1.87,4.49-2.81-1.17,4.02-9.66Zm1.92,3.29c-.09.22-.15.41-.19.62-.13.83.28,1.67,1.09,2.01,1.22.51,2.36-.21,3-1.74.6-1.44.41-2.8-.85-3.32-.79-.33-1.74-.03-2.27.72-.1.13-.19.31-.26.48l-.51,1.24Z"/>
        <path class="cls-2" d="m38.44,74.99l-.5,5.01c-.07.58-.17,1.34-.26,1.87l.07.03c.32-.45.74-1.06,1.1-1.54l2.97-3.96,2.99,1.24-4.58,5.07c-2.79,3.06-4.25,4.13-5.64,4.61-1.31.45-2.48.33-3.21.12l.37-2.62c.38.07.89.09,1.42.03.52-.04,1.19-.31,1.63-.64.15-.11.27-.23.32-.34s.08-.25.08-.51l.12-9.66,3.12,1.3Z"/>
        <path class="cls-2" d="m45.52,82.07l1.35.56c1.15.48,1.86.32,2.08-.2.22-.52-.17-1.11-1.16-1.52-.79-.33-1.75-.43-2.55-.33l.14-1.85c1.34-.2,2.8.08,4.06.61,1.64.68,3.4,2.09,2.63,3.93-.49,1.18-1.8,1.35-2.77,1.19l-.03.07c1.07.6,2.03,1.73,1.47,3.08-.92,2.22-3.8,1.69-5.63.93-1.28-.53-2.44-1.36-3.17-2.34l1.31-1.49c.47.59,1.39,1.29,2.33,1.7,1.2.5,1.92.28,2.14-.24.31-.74-.33-1.33-1.54-1.83l-1.35-.56.7-1.72Z"/>
        <path class="cls-2" d="m57.88,83.07l-1.11,2.68c.41.11.97.27,1.47.48,2.11.88,4.02,2.54,3.02,4.94-.48,1.15-1.3,1.71-2.25,1.92-1.47.32-3.35-.22-4.72-.79-1.03-.43-2.05-.92-2.94-1.42l3.73-8.98,2.81,1.17Zm-3.01,7.18c.24.14.49.27.92.45.92.38,2.16.53,2.62-.56.46-1.11-.63-1.87-1.5-2.23-.37-.15-.64-.22-.94-.28l-1.09,2.62Z"/>
        <path class="cls-2" d="m69.36,98.44l-2.77-1.15,1.41-3.4-.57-.24c-.59-.25-1.13-.15-1.56.11-.67.26-1.26,1.01-1.82,1.61-.22.21-.39.36-.66.59l-2.99-1.24c.34-.19.67-.46.99-.76.59-.6,1.47-1.62,2.29-1.97.43-.19.9-.3,1.42-.19l.02-.05c-.97-.53-2-1.76-1.4-3.2.47-1.13,1.38-1.5,2.44-1.54.98-.07,2.32.31,3.55.83,1.4.58,2.6,1.21,3.37,1.64l-3.73,8.98Zm.29-8.52c-.23-.14-.49-.29-.93-.47-.91-.38-1.83-.35-2.17.48-.32.78.4,1.53,1.23,1.88.44.18.69.27.93.37l.94-2.25Z"/>
        <path class="cls-2" d="m90.05,92.44l-5.18,12.45-2.81-1.17,4.22-10.14-2.83-1.17-1.23,2.96c-1.33,3.2-2.76,5.5-5.11,5.83-.77.09-1.73,0-2.73-.42l.59-2.42c.64.18,1.25.13,1.7-.07,1.08-.46,1.93-1.99,2.72-3.88l2.27-5.45,8.38,3.49Z"/>
        <path class="cls-2" d="m93.76,97.99l-1.4,3.36,1.16.48c1.34-2.02,3.5-2.75,5.78-1.8,2.55,1.06,3.49,3.68,2.36,6.42-1.33,3.2-4.11,3.95-6.42,2.99-2.2-.91-3.3-3.04-2.62-5.58l-1.11-.46-1.51,3.62-2.79-1.16,3.76-9.03,2.79,1.16Zm5.05,7.39c.58-1.38.67-2.91-.42-3.36-1.15-.48-2.17.68-2.74,2.07-.62,1.48-.63,2.92.48,3.38,1.05.44,2.05-.55,2.69-2.09Z"/>
        <path class="cls-2" d="m113.36,106.14l-2.93,7.06.98.45-2.15,4.8-2.11-.88,1.12-2.96-5.71-2.37-1.34,2.86-2.12-.88,1.94-4.87.87.3c.63-.41,1.21-.93,1.69-1.51.67-.83,1.22-1.79,1.64-2.79l.92-2.22,7.2,3Zm-6.06,1.12c-.32.76-.78,1.52-1.31,2.21-.35.48-.81.92-1.26,1.27l2.99,1.25,2.05-4.93-2.03-.84-.44,1.05Z"/>
        <path class="cls-2" d="m116.16,107.31l3.58,1.49-.44,3.82c-.08.6-.2,1.63-.35,2.52l.06.02c.42-.54,1.13-1.42,1.75-2.17l2.33-2.8,3.55,1.47-3.2,9.26-2.6-1.08,1.36-3.68c.3-.78.79-2.12,1.22-3.2l-.06-.02c-.85,1.05-1.03,1.33-2.1,2.59l-2.73,3.18-2.05-.85.42-4.03c.11-.95.36-2.37.51-3.3l-.07-.03c-.5,1.11-1.05,2.38-1.41,3.12l-1.63,3.5-2.51-1.04,4.38-8.77Z"/>
        <path class="cls-2" d="m131.75,113.79l-1.15,2.77c-.6,1.44-1.1,2.43-1.68,3.61l.07.05c.85-.86,1.39-1.46,2.11-2.16l3.37-3.15,3.44,1.43-3.76,9.03-2.66-1.11,1.14-2.75c.58-1.4.9-1.96,1.79-3.83l-.07-.03c-.76.83-1.23,1.33-1.95,2.03-1.09,1.02-2.43,2.3-3.64,3.45l-3.42-1.42,3.76-9.03,2.66,1.11Z"/>
        <path class="cls-2" d="m148.04,120.57l-3.76,9.03-2.81-1.17,2.87-6.89-1.96-.81-.69,1.66c-.91,2.2-1.81,3.62-3.16,4.01-.83.37-1.74.32-2.99-.21l.59-2.31c.46.1.89.09,1.22-.06.74-.32,1.17-1.14,1.8-2.65l1.53-3.68,7.37,3.07Z"/>
        <path class="cls-2" d="m153.06,122.65l-1.11,2.68c.39.1.9.24,1.51.5,2,.83,3.71,2.54,2.75,4.85-.48,1.16-1.29,1.69-2.24,1.9-1.48.32-3.15-.14-4.5-.7-1.03-.43-2.04-.92-2.94-1.42l3.73-8.98,2.81,1.17Zm-3.01,7.2c.23.12.5.25.83.39.94.39,2.06.42,2.49-.63.42-1.02-.36-1.73-1.21-2.08-.44-.19-.74-.26-1.02-.31l-1.1,2.64Zm12.34-3.32l-3.76,9.03-2.81-1.17,3.76-9.03,2.81,1.17Z"/>
        <path class="cls-2" d="m170.99,130.11l-1.15,2.77c-.6,1.44-1.1,2.43-1.68,3.61l.07.05c.85-.86,1.39-1.46,2.11-2.16l3.37-3.15,3.44,1.43-3.76,9.03-2.66-1.11,1.14-2.75c.58-1.4.9-1.96,1.79-3.83l-.07-.03c-.76.83-1.23,1.33-1.95,2.03-1.09,1.02-2.43,2.3-3.64,3.45l-3.42-1.42,3.76-9.03,2.66,1.11Z"/>
        <path class="cls-2" d="m184.55,131.94c.93.21,2.19.61,3.91,1.32,1.74.72,2.83,1.57,3.39,2.58.55.97.64,2.22.13,3.43s-1.33,2.11-2.38,2.48c-1.33.49-2.93.32-4.59-.37-.37-.15-.69-.31-.93-.47l-1.86,4.47-2.79-1.16,5.11-12.28Zm.44,6.81c.22.16.49.29.91.47,1.5.62,2.73.25,3.26-1.01.48-1.15-.03-2.16-1.46-2.75-.55-.23-.96-.36-1.18-.38l-1.53,3.68Z"/>
        <path class="cls-2" d="m196.05,140.53l-.5,5.01c-.07.58-.17,1.34-.26,1.87l.07.03c.32-.45.74-1.06,1.09-1.54l2.97-3.96,2.99,1.24-4.58,5.07c-2.79,3.06-4.25,4.13-5.64,4.61-1.31.45-2.48.33-3.21.12l.37-2.62c.38.07.89.09,1.42.03.52-.04,1.19-.31,1.63-.64.15-.11.27-.23.32-.34s.08-.25.08-.51l.12-9.66,3.12,1.3Z"/>
        <path class="cls-2" d="m9.3,99.06c-.6.03-1.9-.16-3.4-.79-4.3-1.79-5.4-5.41-3.92-8.96,1.77-4.25,5.77-5.33,9.54-3.77,1.46.61,2.45,1.34,2.84,1.83l-1.51,1.97c-.45-.47-1.16-1.02-2.17-1.45-2.22-.92-4.51-.29-5.67,2.47-1.04,2.49-.21,4.68,2.28,5.72.87.36,1.86.58,2.53.58l-.52,2.39Z"/>
        <path class="cls-2" d="m24.7,95.26l-.91,2.18-3.49-1.45-2.85,6.85-2.81-1.17,3.76-9.03,6.3,2.62Z"/>
        <path class="cls-2" d="m25.75,102.05c-.41,1.19.52,2.23,1.83,2.78.96.4,1.79.59,2.66.65l-.42,2.06c-1.08,0-2.29-.28-3.51-.79-3.07-1.28-4.08-3.78-2.91-6.61.95-2.29,3.43-4.23,6.57-2.92,2.92,1.21,3.08,3.95,2.15,6.18-.2.48-.43.88-.55,1.07l-5.82-2.42Zm4.11-.55c.28-.68.46-1.95-.83-2.49-1.18-.49-2.12.4-2.5,1.11l3.33,1.38Z"/>
        <path class="cls-2" d="m34.33,102.82c.49-1.18.87-2.19,1.19-3.06l2.44,1.01-.39,1.31.04.02c1.06-.66,2.31-.75,3.62-.21,1.98.82,3.04,3.28,1.84,6.16-1.37,3.29-4.1,3.97-6.11,3.13-1.09-.45-1.75-1.25-1.92-2.01h-.04s-1.87,4.47-1.87,4.47l-2.81-1.17,4.02-9.66Zm1.92,3.29c-.09.22-.15.41-.19.61-.13.83.28,1.68,1.09,2.01,1.22.51,2.36-.21,3-1.74.6-1.44.41-2.8-.85-3.32-.79-.33-1.74-.03-2.27.72-.1.13-.19.31-.26.48l-.51,1.24Z"/>
        <path class="cls-2" d="m53.72,112.51c-1.38,3.31-4.35,3.85-6.77,2.84-2.64-1.1-3.95-3.68-2.74-6.6,1.22-2.94,3.92-4,6.84-2.79,2.75,1.14,3.81,3.81,2.67,6.55Zm-6.58-2.63c-.65,1.55-.48,2.98.72,3.48,1.11.46,2.25-.34,2.93-1.99.55-1.33.6-2.91-.67-3.44-1.33-.55-2.42.62-2.98,1.95Z"/>
        <path class="cls-2" d="m57.2,115.13c-.41,1.19.52,2.23,1.83,2.78.96.4,1.79.59,2.66.65l-.42,2.06c-1.08,0-2.29-.28-3.51-.79-3.07-1.28-4.08-3.78-2.91-6.6.95-2.29,3.43-4.23,6.57-2.92,2.92,1.21,3.08,3.95,2.15,6.18-.2.48-.43.88-.55,1.07l-5.82-2.42Zm4.11-.55c.28-.68.46-1.95-.83-2.49-1.18-.49-2.12.4-2.5,1.11l3.32,1.38Z"/>
        <path class="cls-2" d="m67.35,113l3.58,1.49-.44,3.83c-.08.6-.2,1.63-.35,2.52l.06.02c.42-.54,1.13-1.42,1.75-2.18l2.33-2.8,3.55,1.47-3.2,9.26-2.6-1.08,1.36-3.68c.3-.78.79-2.12,1.22-3.2l-.06-.02c-.85,1.05-1.03,1.33-2.1,2.59l-2.73,3.18-2.05-.85.42-4.03c.11-.95.36-2.37.51-3.3l-.07-.03c-.5,1.11-1.05,2.38-1.41,3.12l-1.63,3.5-2.51-1.04,4.38-8.77Z"/>
        <path class="cls-2" d="m84.34,120.07l3.58,1.49-.44,3.83c-.07.6-.2,1.63-.35,2.52l.06.02c.42-.54,1.13-1.42,1.75-2.18l2.33-2.8,3.55,1.47-3.2,9.26-2.6-1.08,1.36-3.68c.3-.78.79-2.12,1.22-3.2l-.06-.02c-.85,1.05-1.03,1.33-2.1,2.59l-2.73,3.18-2.05-.85.42-4.03c.11-.95.36-2.37.51-3.3l-.07-.03c-.51,1.11-1.05,2.38-1.41,3.12l-1.63,3.5-2.51-1.04,4.38-8.77Z"/>
        <path class="cls-2" d="m104.3,133.55c-1.38,3.31-4.35,3.84-6.77,2.84-2.64-1.1-3.95-3.68-2.74-6.6,1.22-2.94,3.92-4,6.84-2.79,2.75,1.14,3.81,3.81,2.67,6.55Zm-6.58-2.63c-.64,1.55-.48,2.98.72,3.48,1.11.46,2.24-.34,2.93-1.99.55-1.33.6-2.91-.67-3.44-1.33-.55-2.42.62-2.98,1.95Z"/>
        <path class="cls-2" d="m107.78,136.17c-.41,1.19.52,2.23,1.83,2.78.96.4,1.79.59,2.66.65l-.42,2.06c-1.08,0-2.29-.28-3.51-.79-3.07-1.28-4.08-3.78-2.91-6.6.95-2.29,3.43-4.23,6.57-2.92,2.92,1.21,3.08,3.95,2.15,6.18-.2.48-.43.88-.55,1.07l-5.82-2.42Zm4.11-.55c.28-.68.46-1.95-.83-2.49-1.18-.49-2.12.4-2.5,1.11l3.33,1.38Z"/>
        <path class="cls-2" d="m123.9,136.52l-.91,2.18-3.49-1.45-2.85,6.85-2.81-1.17,3.76-9.03,6.3,2.62Z"/>
        <path class="cls-2" d="m132.13,145.12c-1.38,3.31-4.35,3.84-6.77,2.84-2.64-1.1-3.95-3.68-2.74-6.6,1.22-2.94,3.92-4,6.84-2.79,2.75,1.14,3.81,3.81,2.67,6.55Zm-6.58-2.63c-.65,1.55-.48,2.98.72,3.48,1.11.46,2.25-.34,2.93-1.99.55-1.33.6-2.91-.67-3.44-1.33-.55-2.42.62-2.98,1.95Z"/>
        <path class="cls-2" d="m138.17,146.01c.49-1.18.87-2.2,1.19-3.06l2.44,1.01-.39,1.31h.04c1.06-.65,2.31-.74,3.62-.19,1.98.82,3.04,3.28,1.84,6.16-1.37,3.29-4.1,3.97-6.11,3.13-1.09-.45-1.75-1.25-1.92-2.01h-.04s-1.87,4.47-1.87,4.47l-2.81-1.17,4.02-9.66Zm1.92,3.29c-.09.22-.15.41-.19.61-.13.83.28,1.68,1.09,2.01,1.22.51,2.36-.21,3-1.74.6-1.44.41-2.8-.85-3.32-.79-.33-1.74-.03-2.27.72-.1.13-.19.31-.26.48l-.51,1.24Z"/>
        <path class="cls-2" d="m157.56,155.7c-1.38,3.31-4.35,3.85-6.77,2.84-2.64-1.1-3.95-3.68-2.74-6.6,1.22-2.94,3.92-4,6.84-2.79,2.75,1.14,3.81,3.82,2.67,6.55Zm-6.58-2.63c-.64,1.55-.48,2.98.72,3.48,1.11.46,2.25-.34,2.93-1.99.55-1.33.6-2.91-.67-3.44-1.33-.55-2.42.62-2.98,1.95Z"/>
        <path class="cls-2" d="m161.39,152.11l3.58,1.49-.44,3.83c-.08.6-.2,1.63-.35,2.52l.06.02c.42-.54,1.13-1.42,1.75-2.18l2.33-2.8,3.55,1.47-3.2,9.26-2.6-1.08,1.36-3.68c.3-.78.79-2.12,1.22-3.2l-.06-.02c-.85,1.05-1.03,1.33-2.1,2.59l-2.73,3.18-2.05-.85.42-4.03c.11-.95.36-2.37.51-3.3l-.07-.03c-.5,1.11-1.05,2.38-1.41,3.12l-1.63,3.5-2.51-1.04,4.38-8.77Z"/>
        <path class="cls-2" d="m179,167.47c-.35.85-.66,1.7-.76,2.24l-2.53-1.05.21-.97-.05-.02c-.89.47-1.98.48-3.05.03-1.83-.76-2.36-2.54-1.77-3.98.98-2.35,3.54-2.58,6.74-1.25l.05-.11c.21-.5.23-1.29-1.15-1.87-.92-.38-2.03-.48-2.78-.35l.24-2.03c.77-.09,2.2-.04,3.85.65,3.01,1.25,3.21,3.42,2.32,5.56l-1.31,3.16Zm-1.85-3.22c-1.48-.61-2.77-.74-3.21.33-.3.72.04,1.27.66,1.53.68.28,1.47.07,1.89-.43.1-.13.19-.29.25-.46l.41-.98Z"/>
        <path class="cls-2" d="m186.87,162.71l-1.36,3.27,2.84,1.18,1.36-3.27,2.81,1.17-3.76,9.03-2.81-1.17,1.49-3.58-2.84-1.18-1.49,3.58-2.81-1.17,3.76-9.03,2.81,1.17Z"/>
        <path class="cls-2" d="m199.44,175.98c-.35.85-.66,1.7-.76,2.24l-2.53-1.05.21-.97-.06-.02c-.89.47-1.98.48-3.05.03-1.83-.76-2.37-2.54-1.77-3.98.98-2.35,3.54-2.58,6.74-1.25l.05-.11c.21-.5.23-1.29-1.15-1.87-.92-.38-2.03-.48-2.78-.35l.24-2.03c.77-.09,2.2-.04,3.85.65,3.01,1.25,3.21,3.42,2.32,5.56l-1.31,3.16Zm-1.85-3.22c-1.48-.61-2.77-.74-3.21.33-.3.72.03,1.27.66,1.53.68.28,1.47.07,1.89-.43.1-.13.19-.29.25-.46l.41-.98Z"/>
        <path class="cls-2" d="m4.27,108.75l-.95,2.29-5.47-2.27-.89,2.14c.45.12,1.07.34,1.55.54,1.26.52,2.44,1.38,3.09,2.48.61.99.77,2.21.2,3.59-.5,1.2-1.35,1.95-2.35,2.32-1.64.55-3.75.11-5.65-.68-1.39-.58-2.34-1.08-2.93-1.44l5.15-12.39,8.26,3.43Zm-9.79,8.12c.29.19.65.36,1.04.52.68.28,1.46.35,2.09.13.52-.2.96-.6,1.22-1.21.26-.63.19-1.2-.08-1.68-.34-.59-.97-1.05-1.63-1.33-.31-.13-.66-.23-1.01-.33l-1.62,3.9Z"/>
        <path class="cls-2" d="m5.53,119.63c-.41,1.19.52,2.23,1.83,2.78.96.4,1.79.59,2.66.65l-.42,2.06c-1.08,0-2.29-.28-3.51-.79-3.07-1.28-4.08-3.78-2.91-6.6.95-2.29,3.43-4.23,6.57-2.92,2.92,1.21,3.08,3.95,2.15,6.18-.2.48-.43.88-.55,1.07l-5.82-2.42Zm4.11-.55c.28-.68.46-1.95-.83-2.49-1.18-.49-2.12.4-2.5,1.11l3.33,1.38Z"/>
        <path class="cls-2" d="m14.88,121.31l1.35.56c1.15.48,1.86.32,2.08-.2.21-.52-.17-1.11-1.16-1.52-.79-.33-1.75-.42-2.55-.32l.14-1.85c1.34-.2,2.8.08,4.06.61,1.64.68,3.4,2.09,2.63,3.93-.49,1.18-1.8,1.35-2.77,1.19l-.03.07c1.07.6,2.03,1.73,1.47,3.08-.92,2.22-3.8,1.69-5.63.93-1.27-.53-2.44-1.36-3.17-2.33l1.31-1.49c.47.59,1.39,1.29,2.33,1.7,1.2.5,1.92.28,2.14-.24.31-.74-.33-1.33-1.54-1.83l-1.35-.56.7-1.73Z"/>
        <path class="cls-2" d="m36.57,126.19l-3.76,9.03-2.83-1.18,2.86-6.87-2.77-1.15-2.86,6.87-2.81-1.17,3.76-9.03,8.4,3.5Z"/>
        <path class="cls-2" d="m37.56,130.16c.49-1.18.87-2.19,1.19-3.06l2.44,1.01-.39,1.31h.04c1.06-.65,2.31-.74,3.62-.19,1.98.82,3.04,3.28,1.84,6.16-1.37,3.29-4.1,3.97-6.11,3.13-1.09-.45-1.75-1.25-1.92-2.01l-.04-.02-1.87,4.49-2.81-1.17,4.02-9.66Zm1.92,3.29c-.09.22-.15.41-.19.61-.13.83.28,1.68,1.09,2.01,1.22.51,2.36-.21,3-1.74.6-1.44.41-2.8-.85-3.32-.79-.33-1.74-.03-2.27.72-.1.13-.19.31-.26.48l-.51,1.24Z"/>
        <path class="cls-2" d="m49.77,138.03c-.41,1.19.52,2.23,1.83,2.78.96.4,1.79.59,2.66.65l-.42,2.06c-1.08,0-2.29-.28-3.51-.79-3.07-1.27-4.08-3.78-2.91-6.6.95-2.29,3.43-4.23,6.57-2.92,2.92,1.21,3.08,3.95,2.15,6.18-.2.48-.43.88-.55,1.07l-5.82-2.42Zm4.11-.55c.28-.68.46-1.95-.83-2.49-1.18-.49-2.12.4-2.5,1.11l3.33,1.38Z"/>
        <path class="cls-2" d="m68.02,139.27l-2.93,7.06.98.45-2.15,4.8-2.11-.88,1.12-2.96-5.71-2.37-1.34,2.86-2.12-.88,1.94-4.87.87.3c.63-.41,1.21-.93,1.69-1.51.67-.83,1.22-1.79,1.64-2.79l.92-2.22,7.2,3Zm-6.06,1.12c-.32.76-.78,1.52-1.31,2.21-.35.48-.82.92-1.27,1.27l2.99,1.24,2.05-4.93-2.03-.84-.44,1.05Z"/>
        <path class="cls-2" d="m73.15,141.41l-1.15,2.77c-.6,1.44-1.1,2.43-1.68,3.61l.07.05c.85-.86,1.39-1.46,2.11-2.16l3.37-3.15,3.44,1.43-3.76,9.03-2.66-1.11,1.14-2.75c.58-1.4.9-1.96,1.79-3.83l-.07-.03c-.76.83-1.23,1.33-1.95,2.03-1.09,1.02-2.43,2.3-3.64,3.45l-3.42-1.42,3.76-9.03,2.66,1.11Z"/>
        <path class="cls-2" d="m84.66,156.5c-.6.03-1.62-.17-2.69-.62-2.92-1.21-4.04-3.78-2.86-6.61,1.1-2.64,3.81-4.05,7.17-2.65.74.31,1.5.77,2,1.24l-1.31,1.9c-.27-.29-.72-.62-1.45-.93-1.48-.61-2.88.04-3.47,1.52-.68,1.64.06,2.99,1.42,3.56.67.28,1.23.38,1.73.37l-.53,2.21Z"/>
        <path class="cls-2" d="m98.1,151.78l-3.76,9.03-2.81-1.17,2.87-6.89-1.96-.81-.69,1.66c-.91,2.2-1.81,3.62-3.16,4.01-.83.37-1.74.32-2.99-.2l.59-2.31c.46.1.89.09,1.22-.06.74-.32,1.17-1.14,1.8-2.65l1.53-3.68,7.37,3.07Z"/>
        <path class="cls-2" d="m107.42,160.84c-1.38,3.31-4.35,3.85-6.77,2.84-2.64-1.1-3.95-3.68-2.74-6.6,1.22-2.94,3.92-4,6.84-2.79,2.75,1.14,3.81,3.82,2.67,6.55Zm-6.58-2.63c-.65,1.55-.48,2.98.72,3.48,1.11.46,2.25-.34,2.93-1.99.55-1.33.6-2.91-.67-3.44-1.33-.55-2.42.62-2.98,1.95Z"/>
        <path class="cls-2" d="m110.93,157.23c.72.19,2.33.71,3.73,1.29,1.53.64,4.4,2.02,3.51,4.17-.48,1.16-1.68,1.38-2.65,1.17l-.02.06c1.26.78,1.83,1.89,1.32,3.13-1.07,2.57-4.65,1.34-6.5.57-1.26-.52-2.55-1.17-3.09-1.48l3.7-8.9Zm-.3,8.48c.28.16.5.25.93.43.96.4,2.04.52,2.4-.37.33-.79-.26-1.45-1.59-2l-.79-.33-.95,2.27Zm1.64-3.89l.72.3c1.13.47,1.97.47,2.25-.21.25-.59-.11-1.15-1.23-1.62-.37-.15-.64-.22-.96-.34l-.78,1.87Z"/>
        <path class="cls-2" d="m123.82,162.48l-1.15,2.77c-.6,1.44-1.09,2.43-1.68,3.61l.07.05c.86-.86,1.39-1.46,2.11-2.16l3.37-3.15,3.43,1.43-3.76,9.03-2.66-1.11,1.14-2.75c.58-1.4.9-1.96,1.79-3.83l-.07-.03c-.76.83-1.23,1.33-1.95,2.03-1.09,1.02-2.43,2.3-3.64,3.45l-3.42-1.42,3.76-9.03,2.66,1.11Z"/>
        <path class="cls-2" d="m134.85,167.07l-1.15,2.77c-.6,1.44-1.09,2.43-1.68,3.61l.07.05c.86-.86,1.39-1.46,2.11-2.16l3.37-3.15,3.43,1.43-3.76,9.03-2.66-1.11,1.14-2.75c.58-1.4.9-1.96,1.79-3.83l-.07-.03c-.76.83-1.23,1.33-1.95,2.03-1.09,1.02-2.43,2.3-3.64,3.45l-3.42-1.42,3.76-9.03,2.66,1.11Zm2.42-3.37c-.32.82-.21,1.45.3,1.67.55.23,1.06-.16,1.45-.93l1.77.74c-.83,1.67-2.21,2.14-3.8,1.48-1.7-.71-2.09-2.06-1.5-3.68l1.77.74Z"/>
        <path class="cls-2" d="m137.45,181.32c1.27-1.4,2.57-3.11,3.53-4.68l2.94,1.01c-1.39,1.63-3.03,3.22-4.52,4.3l-1.95-.62Z"/>
        <path class="cls-2" d="m154.88,185.71c-.6.03-1.62-.17-2.69-.62-2.92-1.21-4.04-3.78-2.86-6.61,1.1-2.64,3.81-4.05,7.17-2.65.74.31,1.5.77,2,1.24l-1.31,1.9c-.27-.29-.72-.62-1.46-.93-1.48-.61-2.88.04-3.47,1.52-.68,1.64.06,2.99,1.42,3.56.67.28,1.23.38,1.73.37l-.53,2.21Z"/>
        <path class="cls-2" d="m159.87,183.82c-.41,1.19.52,2.23,1.83,2.78.96.4,1.79.59,2.66.65l-.42,2.05c-1.08,0-2.29-.28-3.51-.79-3.07-1.28-4.08-3.78-2.91-6.6.95-2.29,3.43-4.23,6.57-2.92,2.92,1.21,3.08,3.95,2.15,6.18-.2.48-.43.88-.55,1.07l-5.82-2.42Zm4.11-.55c.28-.68.46-1.95-.83-2.49-1.18-.49-2.12.4-2.5,1.11l3.33,1.38Z"/>
        <path class="cls-2" d="m172.35,182.67l-1.15,2.77c-.6,1.44-1.1,2.43-1.68,3.61l.07.05c.85-.86,1.39-1.46,2.11-2.16l3.37-3.15,3.44,1.43-3.76,9.03-2.66-1.11,1.14-2.75c.58-1.4.9-1.96,1.79-3.83l-.07-.03c-.76.83-1.23,1.33-1.95,2.03-1.09,1.02-2.43,2.3-3.64,3.45l-3.42-1.42,3.76-9.03,2.66,1.11Zm2.42-3.37c-.32.82-.21,1.45.3,1.67.55.23,1.06-.16,1.45-.93l1.77.74c-.83,1.67-2.21,2.14-3.8,1.47-1.7-.71-2.09-2.06-1.5-3.68l1.77.74Z"/>
        <path class="cls-2" d="m186.46,188.53l.53,4.46.3.12,1.51-3.62,2.71,1.13-1.51,3.62.28.12,3.56-2.77,3.1,1.29-4.76,2.59c.94.61,1.23,1.88,1.15,3.17-.05,1.17-.17,2.29-.11,3.29l-2.81-1.17c-.07-.55,0-1.36.08-2.39.06-1.14-.29-1.92-1.02-2.22l-.22-.09-1.5,3.6-2.72-1.13,1.5-3.6-.22-.09c-.81-.34-1.54-.04-2.34.83-.72.8-1.2,1.38-1.65,1.74l-2.77-1.15c.78-.67,1.51-1.54,2.29-2.38.86-.98,1.95-1.66,3.04-1.42l-1.52-5.2,3.1,1.29Z"/>
        <path class="cls-2" d="m197.86,199.62c-.41,1.19.52,2.23,1.83,2.78.96.4,1.79.59,2.66.65l-.42,2.06c-1.08,0-2.29-.28-3.51-.79-3.07-1.28-4.08-3.78-2.91-6.6.95-2.29,3.43-4.23,6.57-2.92,2.92,1.21,3.08,3.95,2.15,6.18-.2.48-.43.88-.55,1.07l-5.82-2.42Zm4.11-.55c.28-.68.46-1.95-.83-2.49-1.18-.49-2.12.4-2.5,1.11l3.33,1.38Z"/>
        <path class="cls-2" d="m4.85,144.17c-1.38,3.31-4.35,3.85-6.77,2.84-2.64-1.1-3.95-3.68-2.74-6.6,1.22-2.94,3.92-4,6.84-2.79,2.75,1.14,3.81,3.81,2.67,6.55Zm-6.58-2.63c-.64,1.55-.48,2.98.72,3.48,1.11.46,2.24-.34,2.93-1.99.55-1.33.6-2.91-.67-3.44-1.33-.55-2.42.62-2.98,1.95Z"/>
        <path class="cls-2" d="m7.84,144.38l1.35.56c1.15.48,1.86.32,2.08-.2.22-.52-.17-1.11-1.16-1.53-.79-.33-1.75-.42-2.55-.32l.14-1.85c1.34-.2,2.8.08,4.06.61,1.64.68,3.4,2.09,2.63,3.93-.49,1.18-1.8,1.35-2.77,1.19l-.03.07c1.07.6,2.03,1.73,1.47,3.08-.92,2.22-3.8,1.69-5.63.93-1.27-.53-2.45-1.36-3.17-2.34l1.31-1.49c.47.59,1.39,1.29,2.33,1.7,1.2.5,1.92.28,2.14-.24.31-.74-.33-1.33-1.54-1.83l-1.35-.56.7-1.73Z"/>
        <path class="cls-2" d="m17.36,144.31c.72.19,2.33.71,3.73,1.29,1.53.64,4.4,2.02,3.51,4.17-.48,1.16-1.68,1.38-2.65,1.17l-.02.05c1.26.78,1.84,1.89,1.32,3.13-1.07,2.57-4.65,1.34-6.5.57-1.26-.52-2.55-1.17-3.09-1.48l3.7-8.9Zm-.3,8.48c.28.16.5.25.93.43.96.4,2.04.52,2.4-.37.33-.79-.26-1.45-1.59-2l-.79-.33-.94,2.27Zm1.64-3.89l.72.3c1.13.47,1.97.47,2.25-.21.25-.59-.11-1.15-1.23-1.62-.37-.15-.64-.22-.96-.34l-.78,1.87Z"/>
        <path class="cls-2" d="m34.7,156.59c-1.38,3.31-4.35,3.85-6.77,2.84-2.64-1.1-3.95-3.68-2.74-6.6,1.22-2.94,3.92-4,6.84-2.79,2.75,1.14,3.81,3.81,2.67,6.55Zm-6.58-2.63c-.65,1.55-.48,2.98.72,3.48,1.11.46,2.25-.35,2.93-1.99.55-1.33.6-2.91-.67-3.44-1.33-.55-2.42.62-2.98,1.95Z"/>
        <path class="cls-2" d="m46.12,156.16l-3.76,9.03-2.81-1.17,2.87-6.89-1.96-.81-.69,1.66c-.91,2.2-1.81,3.62-3.16,4.01-.83.37-1.74.32-2.99-.2l.59-2.31c.46.1.89.09,1.22-.06.74-.32,1.17-1.14,1.8-2.65l1.53-3.68,7.37,3.07Z"/>
        <path class="cls-2" d="m51.14,158.25l-1.11,2.68c.41.11.97.27,1.47.48,2.11.88,4.02,2.54,3.02,4.94-.48,1.15-1.3,1.71-2.25,1.92-1.47.32-3.35-.22-4.72-.79-1.03-.43-2.05-.92-2.94-1.42l3.73-8.98,2.81,1.17Zm-3.01,7.18c.24.14.5.27.92.45.92.38,2.16.53,2.62-.56.46-1.11-.63-1.87-1.5-2.23-.37-.15-.64-.22-.94-.28l-1.09,2.62Z"/>
        <path class="cls-2" d="m64.54,163.82l-.9,2.16-2.62-1.09-2.86,6.87-2.81-1.17,2.86-6.87-2.62-1.09.9-2.16,8.05,3.35Z"/>
        <path class="cls-2" d="m65.54,170.59c-.41,1.19.52,2.23,1.83,2.78.96.4,1.79.59,2.65.65l-.42,2.06c-1.08,0-2.29-.28-3.51-.79-3.07-1.27-4.08-3.78-2.91-6.6.95-2.29,3.43-4.23,6.57-2.92,2.92,1.21,3.08,3.95,2.15,6.18-.2.48-.43.88-.55,1.07l-5.82-2.42Zm4.11-.55c.28-.68.46-1.95-.83-2.49-1.18-.49-2.12.4-2.5,1.11l3.33,1.38Z"/>
        <path class="cls-2" d="m87.5,173.37l-3.76,9.03-2.83-1.17,2.86-6.87-2.77-1.15-2.86,6.87-2.81-1.17,3.76-9.03,8.4,3.5Z"/>
        <path class="cls-2" d="m96.83,182.43c-1.38,3.31-4.35,3.85-6.77,2.84-2.64-1.1-3.95-3.68-2.74-6.6,1.22-2.94,3.92-4,6.84-2.79,2.75,1.14,3.81,3.81,2.67,6.55Zm-6.58-2.63c-.64,1.55-.48,2.98.72,3.48,1.11.46,2.24-.34,2.93-1.99.55-1.33.6-2.91-.67-3.44-1.33-.55-2.42.62-2.98,1.95Z"/>
        <path class="cls-2" d="m99.82,182.63l1.35.56c1.14.48,1.86.32,2.08-.2.22-.52-.17-1.11-1.16-1.52-.79-.33-1.75-.42-2.55-.32l.14-1.85c1.34-.2,2.8.08,4.06.6,1.64.68,3.4,2.09,2.63,3.93-.49,1.18-1.8,1.35-2.77,1.19l-.03.07c1.07.6,2.03,1.73,1.47,3.08-.92,2.22-3.8,1.69-5.63.93-1.28-.53-2.45-1.36-3.17-2.34l1.31-1.49c.47.59,1.39,1.29,2.33,1.7,1.2.5,1.92.28,2.14-.24.31-.74-.33-1.33-1.54-1.83l-1.35-.56.7-1.73Z"/>
        <path class="cls-2" d="m112.19,183.64l-1.36,3.27,2.84,1.18,1.36-3.27,2.81,1.17-3.76,9.03-2.81-1.17,1.49-3.58-2.84-1.18-1.49,3.58-2.81-1.17,3.76-9.03,2.81,1.17Z"/>
        <path class="cls-2" d="m124.76,196.9c-.35.85-.66,1.7-.76,2.24l-2.53-1.05.21-.97-.06-.02c-.89.47-1.98.48-3.05.03-1.83-.76-2.37-2.54-1.77-3.98.98-2.35,3.54-2.58,6.74-1.25l.05-.11c.21-.5.23-1.29-1.15-1.87-.92-.38-2.03-.48-2.78-.35l.24-2.03c.77-.09,2.2-.04,3.85.65,3.01,1.25,3.21,3.42,2.32,5.56l-1.31,3.16Zm-1.85-3.22c-1.48-.61-2.77-.74-3.21.33-.3.72.03,1.27.66,1.53.68.28,1.47.07,1.89-.43.1-.13.19-.29.25-.46l.41-.98Z"/>
        <path class="cls-2" d="m132.65,192.14l-1.5,3.6.3.12,3.79-2.65,3.27,1.36-4.95,2.51c.99.63,1.27,1.89,1.24,3.42,0,.87-.11,2.08-.02,3.11l-2.94-1.22c-.08-.49-.03-1.23.02-2.33.04-1.2-.3-1.99-1.21-2.36l-.28-.12-1.49,3.58-2.81-1.17,3.76-9.03,2.81,1.17Z"/>
        <path class="cls-2" d="m146.58,203.12c-1.38,3.31-4.35,3.84-6.77,2.84-2.64-1.1-3.95-3.68-2.74-6.6,1.22-2.94,3.92-4,6.84-2.79,2.75,1.14,3.81,3.81,2.67,6.55Zm-6.58-2.63c-.64,1.55-.48,2.98.72,3.48,1.11.46,2.24-.34,2.93-1.99.55-1.33.6-2.91-.67-3.44-1.33-.55-2.42.62-2.98,1.95Z"/>
        <path class="cls-2" d="m-.11,169.27c-.41,1.19.52,2.23,1.83,2.78.96.4,1.79.59,2.66.65l-.42,2.06c-1.08,0-2.29-.28-3.51-.79-3.07-1.27-4.08-3.78-2.91-6.6.95-2.29,3.43-4.23,6.57-2.92,2.92,1.21,3.08,3.95,2.15,6.18-.2.48-.43.88-.55,1.07l-5.82-2.42Zm4.11-.55c.28-.68.46-1.95-.83-2.49-1.18-.49-2.12.4-2.5,1.11l3.33,1.38Z"/>
        <path class="cls-2" d="m16.01,169.63l-.91,2.18-3.49-1.45-2.85,6.85-2.81-1.17,3.76-9.03,6.3,2.62Z"/>
        <path class="cls-2" d="m19.97,171.27l-1.15,2.77c-.6,1.44-1.1,2.43-1.68,3.61l.07.05c.86-.86,1.39-1.46,2.11-2.16l3.37-3.15,3.44,1.43-3.76,9.03-2.66-1.11,1.14-2.75c.58-1.4.9-1.96,1.79-3.83l-.07-.03c-.76.83-1.23,1.33-1.95,2.03-1.09,1.02-2.43,2.3-3.64,3.45l-3.42-1.42,3.76-9.03,2.66,1.11Z"/>
        <path class="cls-2" d="m31.14,175.92l-1.36,3.27,2.84,1.18,1.36-3.27,2.81,1.17-3.76,9.03-2.81-1.17,1.49-3.58-2.84-1.18-1.49,3.58-2.81-1.17,3.76-9.03,2.81,1.17Z"/>
        <path class="cls-2" d="m33.26,189.98c1.28-1.4,2.57-3.11,3.53-4.68l2.94,1.01c-1.39,1.63-3.03,3.22-4.52,4.3l-1.95-.62Z"/>
        <path class="cls-2" d="m55.98,186.25l-2.93,7.06.98.45-2.15,4.8-2.11-.88,1.12-2.96-5.71-2.37-1.34,2.86-2.12-.88,1.94-4.87.87.3c.63-.41,1.21-.93,1.69-1.51.67-.83,1.22-1.79,1.63-2.79l.92-2.22,7.2,3Zm-6.06,1.12c-.31.76-.78,1.52-1.31,2.21-.35.48-.82.92-1.27,1.27l2.99,1.24,2.05-4.93-2.03-.84-.44,1.05Z"/>
        <path class="cls-2" d="m65.5,195.39c-1.38,3.31-4.35,3.84-6.77,2.84-2.64-1.1-3.95-3.68-2.74-6.6,1.22-2.94,3.92-4,6.84-2.79,2.75,1.14,3.81,3.82,2.67,6.55Zm-6.58-2.63c-.65,1.55-.48,2.98.72,3.48,1.11.46,2.25-.34,2.93-1.99.55-1.33.6-2.91-.67-3.44-1.33-.55-2.42.62-2.98,1.95Z"/>
        <path class="cls-2" d="m77.71,192.89c-.58-.07-1.57-.33-2.26-.55-1.36-.42-2.43-.45-3.34,0-.77.35-1.54,1.16-1.91,1.83l.09.04c.96-.75,2.35-1.02,3.66-.47,2.46,1.02,3.28,3.47,2.15,6.18-1.21,2.92-3.93,3.93-6.63,2.81-3.14-1.31-3.66-4.49-2.23-7.93.98-2.35,2.38-3.99,4.23-4.7,1.28-.57,2.74-.59,4.46-.1.89.26,2.14.63,2.86.73l-1.09,2.15Zm-5.24,2.5c-.61-.25-1.18-.12-1.63.21-.5.31-.89.8-1.22,1.57-.49,1.18-.65,2.98.68,3.53,1.31.54,2.36-.62,2.9-1.91.5-1.2.66-2.83-.73-3.4Z"/>
        <path class="cls-2" d="m78.46,199.16c.49-1.18.87-2.2,1.19-3.06l2.44,1.01-.39,1.31.04.02c1.06-.67,2.31-.75,3.62-.21,1.98.82,3.04,3.28,1.84,6.16-1.37,3.29-4.1,3.97-6.11,3.13-1.09-.45-1.75-1.25-1.92-2.01h-.04s-1.87,4.47-1.87,4.47l-2.81-1.17,4.02-9.66Zm1.92,3.29c-.09.22-.15.41-.19.61-.13.83.28,1.68,1.09,2.01,1.22.51,2.36-.21,3-1.74.6-1.44.41-2.8-.85-3.32-.79-.33-1.74-.03-2.27.72-.1.13-.19.31-.26.48l-.51,1.24Z"/>
      </g>
    </g>
  </g>
</svg>