<?xml version="1.0" encoding="UTF-8"?>
<svg id="_Слой_2" data-name="Слой 2" xmlns="http://www.w3.org/2000/svg" xmlns:xlink="http://www.w3.org/1999/xlink" viewBox="0 0 199.33 199.33">
  <defs>
    <style>
      .cls-1 {
        fill: #fff;
        font-family: Arial-BoldMT, Arial;
        font-size: 20px;
        font-weight: 700;
      }

      .cls-2 {
        fill: none;
      }

      .cls-2, .cls-3 {
        stroke-width: 0px;
      }

      .cls-4 {
        clip-path: url(#clippath);
      }

      .cls-3 {
        fill: #2e52a4;
      }
    </style>
    <clipPath id="clippath">
      <path class="cls-2" d="m191.66,137.93c-21.13,50.81-79.45,74.87-130.26,53.74C10.59,170.53-13.47,112.21,7.66,61.4,28.8,10.59,87.12-13.47,137.93,7.67c50.81,21.13,74.87,79.45,53.74,130.26Z"/>
    </clipPath>
  </defs>
  <g id="Layer_1" data-name="Layer 1">
    <path class="cls-3" d="m199.3,99.66c0,55.03-44.61,99.64-99.64,99.64S.03,154.69.03,99.66,44.64.03,99.67.03s99.64,44.61,99.64,99.64Z"/>
  </g>
  <g id="Layer_3" data-name="Layer 3">
    <g class="cls-4">
      <text class="cls-1" transform="translate(32.24 -3.12) rotate(22.58)"><tspan x="0" y="0">Մի՛ վախենաք, հայեր,</tspan><tspan x="0" y="24">Այս փոթորկից չարի.</tspan><tspan x="0" y="48">Մի կաթիլ անձրև էլ չի գա,</tspan><tspan x="0" y="72">Որ չբերի մեզ լուր բարի։</tspan><tspan x="0" y="96">Որ չբերի լուր անուշ,</tspan><tspan x="0" y="120">Թարմացնի մեր սիրտը </tspan><tspan x="0" y="144">Եվ մեր դաշտերը </tspan><tspan x="0" y="168">փարթամ</tspan><tspan x="0" y="192">Դարձնի կրկին։</tspan></text>
    </g>
  </g>
</svg>