<?xml version="1.0" encoding="UTF-8"?>
<svg id="_Слой_2" data-name="Слой 2" xmlns="http://www.w3.org/2000/svg" xmlns:xlink="http://www.w3.org/1999/xlink" viewBox="0 0 199.33 199.33">
  <defs>
    <style>
      .cls-1 {
        fill: #fff;
        font-size: 36px;
      }

      .cls-2 {
        font-family: AdobeMyungjoStd-Medium-KSCpc-EUC-H, 'Adobe Myungjo Std';
        font-weight: 500;
      }

      .cls-3 {
        fill: none;
      }

      .cls-3, .cls-4 {
        stroke-width: 0px;
      }

      .cls-5 {
        clip-path: url(#clippath);
      }

      .cls-4 {
        fill: #2e52a4;
      }

      .cls-6 {
        font-family: MicrosoftSansSerif, 'Microsoft Sans Serif';
      }
    </style>
    <clipPath id="clippath">
      <path class="cls-3" d="m191.66,137.93c-21.13,50.81-79.45,74.87-130.26,53.74C10.59,170.53-13.47,112.21,7.66,61.4,28.8,10.59,87.12-13.47,137.93,7.67c50.81,21.13,74.87,79.45,53.74,130.26Z"/>
    </clipPath>
  </defs>
  <g id="Layer_1" data-name="Layer 1">
    <path class="cls-4" d="m199.3,99.66c0,55.03-44.61,99.64-99.64,99.64S.03,154.69.03,99.66,44.64.03,99.67.03s99.64,44.61,99.64,99.64Z"/>
  </g>
  <g id="Layer_3" data-name="Layer 3">
    <g class="cls-5">
      <text class="cls-1" transform="translate(5.14 -2.86) rotate(22.58)"><tspan class="cls-6" x="0" y="0">הַכְנִיסִינִי</tspan><tspan class="cls-2" x="121.68" y="0"> </tspan><tspan class="cls-6" x="133.66" y="0">תַּחַת</tspan><tspan class="cls-2" x="198.47" y="0"> </tspan><tspan class="cls-6" x="210.46" y="0">כְּנָפֵךְ</tspan><tspan class="cls-6" x="0" y="43.2">וֶהְיִי</tspan><tspan class="cls-2" x="56.14" y="43.2"> </tspan><tspan class="cls-6" x="68.13" y="43.2">לִי</tspan><tspan class="cls-2" x="98.37" y="43.2"> </tspan><tspan class="cls-6" x="110.35" y="43.2">אֵם</tspan><tspan class="cls-2" x="153.56" y="43.2"> </tspan><tspan class="cls-6" x="165.55" y="43.2">וְאָחוֹת</tspan><tspan class="cls-2" x="253.39" y="43.2">.</tspan><tspan class="cls-6" x="0" y="86.4">וִיהִי</tspan><tspan class="cls-2" x="56.14" y="86.4"> </tspan><tspan class="cls-6" x="68.13" y="86.4">חֵיקֵךְ</tspan><tspan class="cls-2" x="140.13" y="86.4"> </tspan><tspan class="cls-6" x="152.12" y="86.4">מִקְלַט</tspan><tspan class="cls-2" x="234.21" y="86.4"> </tspan><tspan class="cls-6" x="246.2" y="86.4">רֹאשִׁי</tspan><tspan class="cls-2" x="321.22" y="86.4">,</tspan><tspan class="cls-6" x="0" y="129.6">פַּרְדֵּס</tspan><tspan class="cls-2" x="78.12" y="129.6"> </tspan><tspan class="cls-6" x="90.1" y="129.6">חֶמֶד</tspan><tspan class="cls-2" x="152.03" y="129.6"> </tspan><tspan class="cls-6" x="164.02" y="129.6">שִׂיחִי</tspan><tspan class="cls-2" x="232.56" y="129.6"> </tspan><tspan class="cls-6" x="244.55" y="129.6">נִדְחִי</tspan><tspan class="cls-2" x="308.99" y="129.6">.</tspan></text>
    </g>
  </g>
</svg>